<svg xmlns="http://www.w3.org/2000/svg" xmlns:xlink="http://www.w3.org/1999/xlink" viewBox="0 0 857.87 1020.92"><defs><style>.cls-1{isolation:isolate;}.cls-2{fill:url(#Безымянный_градиент_253);}.cls-3{fill:url(#Безымянный_градиент_30);}.cls-4{fill:#fff;}.cls-5{fill:#ef9582;}.cls-18,.cls-6{fill:#fdbfa8;}.cls-7{opacity:0.45;fill:url(#Безымянный_градиент_8);}.cls-16,.cls-8{fill:#ff8a8a;}.cls-8{opacity:0.5;}.cls-9{fill:#4e1b3d;}.cls-10{fill:#dd6b7c;}.cls-11{fill:#ae3445;}.cls-12{fill:#329d4a;}.cls-13{fill:#003536;}.cls-13,.cls-18{mix-blend-mode:multiply;}.cls-14{fill:#cce3ff;}.cls-15,.cls-17{fill:#ff8282;}.cls-15{opacity:0.4;}.cls-18{opacity:0.49;}.cls-19{fill:#9b1a2e;}.cls-20{fill:#e83f53;}.cls-21{fill:#d62e40;}</style><linearGradient id="Безымянный_градиент_253" x1="-0.09" y1="510.41" x2="858.26" y2="510.41" gradientUnits="userSpaceOnUse"><stop offset="0" stop-color="#250041"/><stop offset="1" stop-color="#1d0014"/></linearGradient><linearGradient id="Безымянный_градиент_30" x1="442.16" y1="444.81" x2="442.16" y2="863.53" gradientUnits="userSpaceOnUse"><stop offset="0" stop-color="#251a2e"/><stop offset="1" stop-color="#ff1a2e"/></linearGradient><linearGradient id="Безымянный_градиент_8" x1="447.08" y1="145.2" x2="447.08" y2="651.51" gradientUnits="userSpaceOnUse"><stop offset="0" stop-color="#ff2441"/><stop offset="0.43" stop-color="#ff2441" stop-opacity="0"/></linearGradient></defs><g class="cls-1"><g id="Layer_1" data-name="Layer 1"><rect class="cls-2" x="-0.09" y="-0.13" width="858.35" height="1021.07"/><ellipse class="cls-3" cx="442.16" cy="654.17" rx="270.64" ry="209.36"/><path class="cls-4" d="M690.64,847.19c-24.07-87.62-171-77.12-199.53-172.6-6.47-21.67-25.84-36.76-48.25-36.76h-1.19l-2.15-.08c-22.37-.87-42.31,13.45-49.52,34.85C358.23,767,188.4,757.41,161.31,844.13c-8.93,28.58,72.84,55.64,135.5,82.19a372.92,372.92,0,0,0,278.27,5.12C638.8,907.14,698.59,876.12,690.64,847.19Z"/><path class="cls-5" d="M401.7,636.18l76.56,1.48a9.11,9.11,0,0,1,8.92,9.12c0,8.37,1.54,20.38,4,28h0l.51,12.62-48.25,33.45-53.11-33.7-1.28-12.51s6.31-16.88,6.72-32.84A5.8,5.8,0,0,1,401.7,636.18Z"/><path class="cls-4" d="M598.88,582.75a28.6,28.6,0,1,1-28.59-28.6A28.59,28.59,0,0,1,598.88,582.75Zm-28.59-17.57a17.57,17.57,0,1,0,17.56,17.57A17.57,17.57,0,0,0,570.29,565.18Z"/><path class="cls-4" d="M295.55,543.12a28.6,28.6,0,1,1-28.6,28.6A28.61,28.61,0,0,1,295.55,543.12ZM278,571.72a17.56,17.56,0,1,0,17.56-17.56A17.56,17.56,0,0,0,278,571.72Z"/><path class="cls-6" d="M649.48,396.81c.39-100.68-50.4-266-205.38-250.64h0C274.56,139.53,228.71,304.49,228.71,405c0,100.31,115.07,245.42,217.89,246.53h0C549.41,650.79,649.09,497.11,649.48,396.81Z"/><path class="cls-6" d="M491.15,674.67c-48.33,48.51-102.1,0-102.1,0-9.65,24.86-27.66,41-27.66,41s74.47,148.92,153.34-.7c0,0-10.94-12.13-16.16-23.11Z"/><path class="cls-7" d="M633.54,400c.4-100.68-34.46-269.14-189.44-253.82h0c-169.54-6.64-183.48,152.71-183.48,253.2,0,100.31,83.16,251,186,252.14h0C549.41,650.79,633.15,500.3,633.54,400Z"/><ellipse class="cls-8" cx="329.66" cy="508.19" rx="32.17" ry="15.43"/><ellipse class="cls-8" cx="547.41" cy="509.51" rx="32.17" ry="15.43"/><path class="cls-9" d="M501.22,427.11c.16-.81,12.87-37.55,31.24-46,13.62-6.3,26.11-7.11,38.43-4,8.32,2.11,18.21,6,26.36,13.35l22.44,2.31-27.06,20.68Z"/><path class="cls-9" d="M377.82,416.85c-.16-.8-14.12-31.22-32.59-38.53A61.63,61.63,0,0,0,307,376.1c-8.21,2.13-17.86,6-25.84,13.21l-25.93-6,24.51,35.23Z"/><path class="cls-10" d="M491.66,446.68l-6.61,20.77s31.95,26.38,94.53-1.19l6.24-26Z"/><path class="cls-10" d="M390.41,445.35,397,466.12s-31.95,26.39-94.53-1.19l-6.24-26Z"/><path class="cls-4" d="M595.71,412.28c-10.6-12.19-37-34.79-74-14a47,47,0,0,0-15.76,14.44c-6.68,9.76-16,26.71-14.62,44.11a9.92,9.92,0,0,0,2.76,6.06c4.21,4.39,14.39,11.91,34.45,11.19,25.32-.92,64-16.78,71.2-45.07A18.53,18.53,0,0,0,595.71,412.28Z"/><path class="cls-4" d="M286.36,411c10.6-12.18,36.95-34.78,74-14a47,47,0,0,1,15.76,14.44c6.68,9.76,15.95,26.7,14.62,44.1a9.94,9.94,0,0,1-2.76,6.07c-4.21,4.39-14.39,11.91-34.45,11.18-25.32-.91-64-16.77-71.2-45.06A18.53,18.53,0,0,1,286.36,411Z"/><path class="cls-11" d="M513.53,327.2l-1.63,6.08a8.59,8.59,0,0,0,4.5,10c6.28,3,18.73,6.94,42.77,8.77,42.65,3.25,66.88,22,66.88,22s-21.53-49.08-102.49-54.11A9.8,9.8,0,0,0,513.53,327.2Z"/><path class="cls-11" d="M363.54,325.88l1.63,6.08a8.6,8.6,0,0,1-4.5,10c-6.28,3-18.73,6.94-42.78,8.77-42.64,3.25-66.88,22-66.88,22s21.54-49.09,102.5-54.11A9.79,9.79,0,0,1,363.54,325.88Z"/><circle class="cls-12" cx="342.76" cy="431.69" r="30.97"/><circle class="cls-12" cx="539.31" cy="433.02" r="30.97"/><circle class="cls-13" cx="343.97" cy="431.06" r="17.87"/><circle class="cls-13" cx="538.1" cy="432.39" r="17.87"/><path class="cls-14" d="M363,767S432.2,838.77,504,767C504,767,445.73,871.19,363,767Z"/><path class="cls-15" d="M405.82,590.81c7.32,3.62,29.75,12.65,51,.14a.47.47,0,0,1,.61.71c-5.92,7-26.63,26.74-52.21-.08A.48.48,0,0,1,405.82,590.81Z"/><path class="cls-16" d="M431.66,509.06c-12.17-4-20.33-12.73-18.21-19.45s13.69-8.91,25.86-4.89a41.91,41.91,0,0,1,6.35,2.69,38.5,38.5,0,0,0-10.65-6.5,39.15,39.15,0,0,0-8.95-2.49c1.66-22.12-2.11-28-2.11-28,1.53,18.55-6.36,27.76-6.36,27.76l0,.07c-6.32.8-11.29,3.78-13.18,8.61-3.43,8.81,4.71,20.44,18.18,26,11.88,4.88,23.93,3.39,29-3.07C446.57,511.66,439.23,511.56,431.66,509.06Z"/><path class="cls-17" d="M438.06,580.94a73.47,73.47,0,0,1-19.93-2.85,93.81,93.81,0,0,1-30.86-15.35,5,5,0,1,1,6.29-7.78,85.15,85.15,0,0,0,27.58,13.59c20.85,5.75,39.5,1.25,55.42-13.38a5,5,0,0,1,6.77,7.37C470.05,574.73,454.66,580.94,438.06,580.94Z"/><path class="cls-18" d="M601.48,272.22s-65.36-138.9-316.6,1l30.64-75.58L525.91,146.6,628,213Z"/><path class="cls-19" d="M299.44,242.85s14.55-46.72,229-60.51C528.46,182.34,494-36,299.44,242.85Z"/><path class="cls-20" d="M537.65,149.41S570.59,27.62,381.39,83.53c0,0-206,59.75-256.59,288.77,0,0-11.72,41.66,7.45,112.38a93.47,93.47,0,0,1,1.17,44.81C130.2,544,124.6,566,114.91,598.78a68.54,68.54,0,0,0-.36,37.73c3.27,11.83,9,29.72,18.83,56.64a117.75,117.75,0,0,1,0,81.21l-.45,1.21c-5.59,15.19-4,32.29,5,45.74,5.2,7.79,12.78,14.11,23.69,14.39,29.11.77,112.6-53.61,131-88.08s24.51-75.06-23-111.83c-31.37-24.29-22.29-57.95-12.51-78a217.53,217.53,0,0,0,20.09-64.16c5-34.88,9.71-90.95,7.74-174.19,0,0,8.84-118.95,143.05-199.34,27.83-16.66,64.13-8.53,81.59,18.8,6.69,10.48,13.07,24.16,18.52,42l.42,1.4Z"/><path class="cls-21" d="M151.61,543.11s2.3,64.34,42.12,85.79,73.54,41.36,75.83,99.57c0,0,3.92-21.56-31.68-48.39a48.75,48.75,0,0,0-18.5-8.55c-20.17-4.6-69-18.32-78.5-48C134,602.09,138.59,588.3,151.61,543.11Z"/><path class="cls-21" d="M141.91,537.75s15.43-22.7,1.78-98.92a118.47,118.47,0,0,1-.25-40.89c5-29.2,19.71-78.88,62.81-129.81,0,0-35.75,68.43-39.83,123.57-2.15,29-2,42.15-1.16,50.51a159.49,159.49,0,0,1-4.94,61.11C156.2,517.59,150.24,531.5,141.91,537.75Z"/><path class="cls-19" d="M528.46,182.34s92.59-61.53,71.15,100.85C599.61,283.19,598.42,208.13,528.46,182.34Z"/><path class="cls-20" d="M537.65,149.41C589.22,140,678.08,194.6,727.1,346.77S737.31,549,737.31,549s-21.45,39.83,0,66.38,34.72,82.73,1,118.47c-17.45,18.51-21.48,40.86-21.32,58.1.27,27.26-11.82,53.37-33.67,69.66C657.27,881,624,888.63,578,876.81c-46.16-11.87-44.21-42.9-37-63.4a71.65,71.65,0,0,1,16.59-26.25c.75-.77,1.49-1.55,2.23-2.32,34.39-36.42,45.13-89.29,28.54-136.56-14.65-41.76-10.36-53.23.9-98.28,14.3-57.19,58.22-101.61,29.62-156.25-13.25-25.32-24.14-118.91-23-155.81a66.06,66.06,0,0,0-8.64-35.28c-21.15-36.45-56.17-21.49-58.63-20.38"/><path class="cls-19" d="M285.42,365.41c.56,17.38,4.06,109.53-19,173.29-29.88,82.73-13.79,74.06,3.06,97,0,0-107.23-29.64-43.91-108.28,56.95-70.73,59.73-148.09,59.71-162.93"/><path class="cls-19" d="M285.26,362s0,.33.05,1"/><path class="cls-21" d="M161.56,835.7s65.11-65.87-1.53-143.23c0,0,46.57,19.53,53.43,121.8.07,1,.19.43.25,1.46"/><path class="cls-21" d="M202.16,479s38.3-117.95,52.6-173.61,51.83-116.17,106.46-133.54l23.49-21.7S296.63,173.66,258.59,237,236.63,305.41,202.16,479Z"/><path class="cls-21" d="M559.78,784.84S610,772.3,628.37,723.28c0,0,19.41,47.32-89.87,120.51"/><path class="cls-21" d="M661.73,873.92S697,775.19,677.05,704s-47.49-64.34-19.91-172.34c0,0-55.92,64.34-14.55,149.36s-13,201.45-13,201.45"/><path class="cls-21" d="M721.65,761.41s9.13-23.28-20.3-105.21c-13.1-36.46-14-76.35-1.73-113.1q.48-1.44,1-2.88c7.34-20.8,9.14-43.23,4.19-64.72a130.78,130.78,0,0,0-19.32-44.22s51.26,57.89,32.17,104.94c-9.16,22.58-9.22,51.44-6.48,76.46a292,292,0,0,0,18,73.13,410.91,410.91,0,0,1,14,42.41"/><path class="cls-21" d="M746.12,421.9s-67.53-9.26-84.44-99.66c-5.39-28.84-15.64-56.54-27-83.57-.89-2.13-1.82-4.31-2.77-6.54,0,0,10,38.18,11.07,69.4a164.2,164.2,0,0,0,12.84,59.15c13.92,32.37,41.55,74,94.82,92.81Z"/></g></g></svg>