<svg xmlns="http://www.w3.org/2000/svg" xmlns:xlink="http://www.w3.org/1999/xlink" viewBox="0 0 1920 1080"><defs><style>.cls-1{isolation:isolate;}.cls-2{fill:url(#Безымянный_градиент_21);}.cls-3{fill:url(#Безымянный_градиент_21-2);}.cls-4,.cls-49,.cls-5,.cls-64,.cls-69{opacity:0.25;}.cls-4{fill:url(#Безымянный_градиент_43);}.cls-5{fill:url(#Безымянный_градиент_43-2);}.cls-6,.cls-65{opacity:0.1;}.cls-6{fill:url(#Безымянный_градиент_51);}.cls-7{fill:url(#Безымянный_градиент_36);}.cls-28,.cls-34,.cls-79,.cls-8,.cls-82{mix-blend-mode:overlay;}.cls-8{fill:url(#Безымянный_градиент_296);}.cls-13,.cls-14,.cls-15,.cls-16,.cls-17,.cls-70,.cls-74,.cls-79,.cls-9{opacity:0.8;}.cls-10,.cls-11,.cls-12,.cls-13,.cls-14,.cls-15,.cls-16,.cls-17,.cls-18,.cls-19,.cls-20,.cls-21,.cls-22,.cls-23,.cls-24,.cls-25,.cls-9{mix-blend-mode:color-dodge;}.cls-9{fill:url(#Безымянный_градиент_254);}.cls-10{fill:url(#Безымянный_градиент_254-2);}.cls-11,.cls-75,.cls-76{opacity:0.6;}.cls-11{fill:url(#Безымянный_градиент_254-3);}.cls-12{fill:url(#Безымянный_градиент_254-4);}.cls-13{fill:url(#Безымянный_градиент_254-5);}.cls-14{fill:url(#Безымянный_градиент_254-6);}.cls-15{fill:url(#Безымянный_градиент_254-7);}.cls-16{fill:url(#Безымянный_градиент_254-8);}.cls-17{fill:url(#Безымянный_градиент_254-9);}.cls-18{fill:url(#Безымянный_градиент_254-10);}.cls-19{fill:url(#Безымянный_градиент_254-11);}.cls-20{fill:url(#Безымянный_градиент_254-12);}.cls-21{fill:url(#Безымянный_градиент_254-13);}.cls-22{fill:url(#Безымянный_градиент_254-14);}.cls-23{fill:url(#Безымянный_градиент_254-15);}.cls-24{fill:url(#Безымянный_градиент_254-16);}.cls-25,.cls-30,.cls-38,.cls-40,.cls-42,.cls-43,.cls-45,.cls-46,.cls-48,.cls-52,.cls-54,.cls-55,.cls-57,.cls-72{opacity:0.5;}.cls-25{fill:url(#Безымянный_градиент_254-17);}.cls-26{fill:url(#Безымянный_градиент_36-2);}.cls-27{fill:url(#Безымянный_градиент_36-3);}.cls-28{fill:url(#Безымянный_градиент_47);}.cls-29{fill:url(#Безымянный_градиент_36-4);}.cls-30{fill:#c80000;}.cls-31{fill:url(#Безымянный_градиент_36-5);}.cls-32{fill:url(#Безымянный_градиент_36-6);}.cls-33{fill:url(#Безымянный_градиент_36-7);}.cls-34{fill:url(#Безымянный_градиент_47-4);}.cls-35{fill:#8c0000;}.cls-36{fill:#640000;}.cls-37{fill:url(#Безымянный_градиент_36-8);}.cls-38{fill:url(#Безымянный_градиент_13);}.cls-39{fill:url(#Безымянный_градиент_36-9);}.cls-40{fill:url(#Безымянный_градиент_13-2);}.cls-41{fill:url(#Безымянный_градиент_36-10);}.cls-42{fill:url(#Безымянный_градиент_13-3);}.cls-43{fill:url(#Безымянный_градиент_13-4);}.cls-44{fill:url(#Безымянный_градиент_36-11);}.cls-45{fill:url(#Безымянный_градиент_13-5);}.cls-46{fill:url(#Безымянный_градиент_13-6);}.cls-47{fill:url(#Безымянный_градиент_36-12);}.cls-48{fill:url(#Безымянный_градиент_13-7);}.cls-49,.cls-58{fill:#fff;}.cls-50{fill:url(#Безымянный_градиент_36-13);}.cls-51{fill:url(#Безымянный_градиент_36-14);}.cls-52{fill:url(#Безымянный_градиент_13-8);}.cls-53{fill:url(#Безымянный_градиент_36-15);}.cls-54{fill:url(#Безымянный_градиент_13-9);}.cls-55{fill:url(#Безымянный_градиент_13-10);}.cls-56{fill:url(#Безымянный_градиент_36-16);}.cls-57{fill:url(#Безымянный_градиент_13-11);}.cls-59{fill:url(#Безымянный_градиент_93);}.cls-60{fill:url(#Безымянный_градиент_145);}.cls-61,.cls-62,.cls-63,.cls-67,.cls-68{opacity:0.2;}.cls-61{fill:url(#Безымянный_градиент_64);}.cls-62{fill:url(#Безымянный_градиент_64-2);}.cls-63{fill:url(#Безымянный_градиент_64-3);}.cls-64{fill:url(#Безымянный_градиент_43-3);}.cls-65{fill:url(#Безымянный_градиент_51-2);}.cls-66{fill:url(#Безымянный_градиент_36-17);}.cls-67{fill:url(#Безымянный_градиент_64-4);}.cls-68{fill:url(#Безымянный_градиент_64-5);}.cls-69{fill:url(#Безымянный_градиент_43-4);}.cls-70{fill:url(#Безымянный_градиент_29);}.cls-71,.cls-80,.cls-81,.cls-82{opacity:0.3;}.cls-71{fill:url(#Безымянный_градиент_29-2);}.cls-72{fill:url(#Безымянный_градиент_29-3);}.cls-73{fill:url(#Безымянный_градиент_46);}.cls-74{fill:url(#Безымянный_градиент_75);}.cls-75{fill:url(#Безымянный_градиент_46-2);}.cls-76{fill:url(#Безымянный_градиент_239);}.cls-77,.cls-78{opacity:0.4;}.cls-77{fill:url(#Безымянный_градиент_46-3);}.cls-78{fill:url(#Безымянный_градиент_75-2);}.cls-79{fill:url(#Безымянный_градиент_247);}.cls-80{fill:url(#Безымянный_градиент_46-4);}.cls-81{fill:url(#Безымянный_градиент_239-2);}.cls-82{fill:url(#Безымянный_градиент_247-2);}</style><linearGradient id="Безымянный_градиент_21" x1="6.17" y1="-10.69" x2="1913.83" y2="1090.69" gradientUnits="userSpaceOnUse"><stop offset="0" stop-color="#002850"/><stop offset="0.5" stop-color="#32003c"/><stop offset="1" stop-color="#0f000a"/></linearGradient><linearGradient id="Безымянный_градиент_21-2" x1="11.17" y1="-10.69" x2="1918.83" y2="1090.69" xlink:href="#Безымянный_градиент_21"/><linearGradient id="Безымянный_градиент_43" x1="361.61" y1="184.42" x2="465.55" y2="244.43" gradientUnits="userSpaceOnUse"><stop offset="0" stop-color="#96007d"/><stop offset="0.5" stop-color="#320064"/><stop offset="1" stop-color="#320064" stop-opacity="0"/></linearGradient><linearGradient id="Безымянный_градиент_43-2" x1="362.61" y1="184.42" x2="466.55" y2="244.43" xlink:href="#Безымянный_градиент_43"/><linearGradient id="Безымянный_градиент_51" x1="361.32" y1="163.16" x2="463.85" y2="265.69" gradientUnits="userSpaceOnUse"><stop offset="0" stop-color="#fff"/><stop offset="1" stop-color="#320064" stop-opacity="0"/></linearGradient><linearGradient id="Безымянный_градиент_36" x1="574.16" y1="843.07" x2="626.13" y2="873.07" gradientUnits="userSpaceOnUse"><stop offset="0" stop-color="#ffb900"/><stop offset="1" stop-color="#dc0046"/></linearGradient><radialGradient id="Безымянный_градиент_296" cx="880.44" cy="258.03" r="354.64" gradientTransform="translate(48.53 65.15) scale(0.92 0.9)" gradientUnits="userSpaceOnUse"><stop offset="0.02" stop-color="#fff"/><stop offset="0.11" stop-color="#fff" stop-opacity="0.95"/><stop offset="0.27" stop-color="#fff" stop-opacity="0.81"/><stop offset="0.5" stop-color="#fff" stop-opacity="0.59"/><stop offset="0.76" stop-color="#fff" stop-opacity="0.28"/><stop offset="0.99" stop-color="#fff" stop-opacity="0"/></radialGradient><radialGradient id="Безымянный_градиент_254" cx="2708.25" cy="-842.32" r="149.52" gradientTransform="translate(910.43 543.4) scale(0.26 0.26)" gradientUnits="userSpaceOnUse"><stop offset="0.02" stop-color="#fff"/><stop offset="0.99" stop-opacity="0"/></radialGradient><radialGradient id="Безымянный_градиент_254-2" cx="484.33" cy="826.64" r="149.52" gradientTransform="translate(667.94 772.73) scale(0.22 0.22)" xlink:href="#Безымянный_градиент_254"/><radialGradient id="Безымянный_градиент_254-3" cx="-240.72" cy="-424.39" r="149.52" gradientTransform="translate(618.69 629.14) scale(0.37 0.37)" xlink:href="#Безымянный_градиент_254"/><radialGradient id="Безымянный_градиент_254-4" cx="-1175.82" cy="-1113" r="149.52" gradientTransform="translate(618.69 629.14) scale(0.37 0.37)" xlink:href="#Безымянный_градиент_254"/><radialGradient id="Безымянный_градиент_254-5" cx="283.14" cy="-807.78" r="114.32" gradientTransform="translate(742.38 177.32) scale(0.09 0.09)" xlink:href="#Безымянный_градиент_254"/><radialGradient id="Безымянный_градиент_254-6" cx="733.65" cy="-1459.23" r="149.52" gradientTransform="translate(742.16 291.19) scale(0.1 0.1)" xlink:href="#Безымянный_градиент_254"/><radialGradient id="Безымянный_градиент_254-7" cx="472.22" cy="-1503.23" r="149.52" gradientTransform="translate(621.32 409.79) scale(0.19 0.19)" xlink:href="#Безымянный_градиент_254"/><radialGradient id="Безымянный_градиент_254-8" cx="215.95" cy="-1051.05" r="149.52" gradientTransform="translate(634.56 479.98) scale(0.22 0.22)" xlink:href="#Безымянный_градиент_254"/><radialGradient id="Безымянный_градиент_254-9" cx="499.73" cy="-1407.58" r="149.52" gradientTransform="translate(650.42 415.14) scale(0.18 0.18)" xlink:href="#Безымянный_градиент_254"/><radialGradient id="Безымянный_градиент_254-10" cx="-131.45" cy="55.3" r="149.52" gradientTransform="translate(618.69 629.14) scale(0.37 0.37)" xlink:href="#Безымянный_градиент_254"/><radialGradient id="Безымянный_градиент_254-11" cx="-1096.48" cy="-443.02" r="149.52" gradientTransform="translate(618.69 629.14) scale(0.37 0.37)" xlink:href="#Безымянный_градиент_254"/><radialGradient id="Безымянный_градиент_254-12" cx="2313.16" cy="409.95" r="149.52" gradientTransform="translate(381.74 567.87) scale(0.48 0.48)" xlink:href="#Безымянный_градиент_254"/><radialGradient id="Безымянный_градиент_254-13" cx="2089.31" cy="-357.59" r="149.52" gradientTransform="translate(381.74 567.87) scale(0.48 0.48)" xlink:href="#Безымянный_градиент_254"/><radialGradient id="Безымянный_градиент_254-14" cx="2022.25" cy="1224.63" r="149.52" gradientTransform="translate(749.61 529.83) scale(0.33 0.33)" xlink:href="#Безымянный_градиент_254"/><radialGradient id="Безымянный_градиент_254-15" cx="3000.72" cy="-600.83" r="149.52" gradientTransform="translate(637.55 545.89) scale(0.37 0.37)" xlink:href="#Безымянный_градиент_254"/><radialGradient id="Безымянный_градиент_254-16" cx="2898.72" cy="-780.46" r="149.52" gradientTransform="translate(893.95 487.96) scale(0.28 0.26)" xlink:href="#Безымянный_градиент_254"/><radialGradient id="Безымянный_градиент_254-17" cx="2567.54" cy="-558.2" r="149.52" gradientTransform="translate(728.29 608.02) scale(0.35 0.35)" xlink:href="#Безымянный_градиент_254"/><linearGradient id="Безымянный_градиент_36-2" x1="835.12" y1="89.29" x2="1398.13" y2="414.34" xlink:href="#Безымянный_градиент_36"/><linearGradient id="Безымянный_градиент_36-3" x1="691.66" y1="337.93" x2="1254.67" y2="662.99" xlink:href="#Безымянный_градиент_36"/><radialGradient id="Безымянный_градиент_47" cx="1047.42" cy="514.19" r="282.39" gradientUnits="userSpaceOnUse"><stop offset="0" stop-color="#fff"/><stop offset="1" stop-color="#a0a0a0"/></radialGradient><linearGradient id="Безымянный_градиент_36-4" x1="839.22" y1="82.19" x2="1402.23" y2="407.24" xlink:href="#Безымянный_градиент_36"/><linearGradient id="Безымянный_градиент_36-5" x1="694.97" y1="332.04" x2="1257.98" y2="657.09" xlink:href="#Безымянный_градиент_36"/><linearGradient id="Безымянный_градиент_36-6" x1="677.17" y1="362.86" x2="1240.18" y2="687.92" xlink:href="#Безымянный_градиент_36"/><linearGradient id="Безымянный_градиент_36-7" x1="683.73" y1="351.51" x2="1246.74" y2="676.56" xlink:href="#Безымянный_градиент_36"/><radialGradient id="Безымянный_градиент_47-4" cx="1047.42" cy="514.19" r="282.38" xlink:href="#Безымянный_градиент_47"/><linearGradient id="Безымянный_градиент_36-8" x1="760.33" y1="218.84" x2="1323.34" y2="543.89" xlink:href="#Безымянный_градиент_36"/><linearGradient id="Безымянный_градиент_13" x1="1107.53" y1="712.9" x2="1204.25" y2="712.9" gradientTransform="matrix(0.97, 0.11, -0.08, 0.77, 114.78, -210.26)" gradientUnits="userSpaceOnUse"><stop offset="0.02" stop-color="#fff" stop-opacity="0.5"/><stop offset="0.99" stop-color="#fff" stop-opacity="0.2"/></linearGradient><linearGradient id="Безымянный_градиент_36-9" x1="700.21" y1="322.96" x2="1263.22" y2="648.01" xlink:href="#Безымянный_градиент_36"/><linearGradient id="Безымянный_градиент_13-2" x1="950.92" y1="355.97" x2="1047.65" y2="355.97" gradientTransform="matrix(0.97, -0.12, 0.09, 0.77, 32.94, 361.36)" xlink:href="#Безымянный_градиент_13"/><linearGradient id="Безымянный_градиент_36-10" x1="656.95" y1="397.88" x2="1219.97" y2="722.94" xlink:href="#Безымянный_градиент_36"/><linearGradient id="Безымянный_градиент_13-3" x1="4064.17" y1="367.63" x2="4160.9" y2="367.63" gradientTransform="matrix(-0.88, 0.06, 0.04, 0.57, 4381.43, 11.89)" xlink:href="#Безымянный_градиент_13"/><linearGradient id="Безымянный_градиент_13-4" x1="3683.91" y1="217.97" x2="3780.63" y2="217.97" gradientTransform="matrix(-1.18, 0.25, 0.23, 1.11, 5036.38, -620.46)" xlink:href="#Безымянный_градиент_13"/><linearGradient id="Безымянный_градиент_36-11" x1="602.41" y1="492.36" x2="1165.42" y2="817.42" xlink:href="#Безымянный_градиент_36"/><linearGradient id="Безымянный_градиент_13-5" x1="3683.91" y1="228.25" x2="3780.63" y2="228.25" gradientTransform="matrix(-1.18, 0.25, 0.23, 1.11, 5036.38, -620.46)" xlink:href="#Безымянный_градиент_13"/><linearGradient id="Безымянный_градиент_13-6" x1="3674.29" y1="1487.97" x2="3771.01" y2="1487.97" gradientTransform="matrix(-0.63, -0.55, -0.54, 0.62, 3862.16, 1462.59)" xlink:href="#Безымянный_градиент_13"/><linearGradient id="Безымянный_градиент_36-12" x1="685.34" y1="348.71" x2="1248.35" y2="673.77" xlink:href="#Безымянный_градиент_36"/><linearGradient id="Безымянный_градиент_13-7" x1="3674.29" y1="1511.24" x2="3771.01" y2="1511.24" gradientTransform="matrix(-0.63, -0.55, -0.54, 0.62, 3862.16, 1462.59)" xlink:href="#Безымянный_градиент_13"/><linearGradient id="Безымянный_градиент_36-13" x1="742.91" y1="249.01" x2="1305.92" y2="574.06" xlink:href="#Безымянный_градиент_36"/><linearGradient id="Безымянный_градиент_36-14" x1="669.63" y1="375.92" x2="1232.64" y2="700.97" xlink:href="#Безымянный_градиент_36"/><linearGradient id="Безымянный_градиент_13-8" x1="4064.17" y1="287.38" x2="4160.9" y2="287.38" gradientTransform="matrix(-0.88, 0.06, 0.04, 0.57, 4381.43, 11.89)" xlink:href="#Безымянный_градиент_13"/><linearGradient id="Безымянный_градиент_36-15" x1="710.77" y1="304.67" x2="1273.78" y2="629.72" xlink:href="#Безымянный_градиент_36"/><linearGradient id="Безымянный_градиент_13-9" x1="5580.58" y1="2269.72" x2="5677.31" y2="2269.72" gradientTransform="matrix(-0.41, -0.13, -0.08, 0.25, 3314.37, 519.82)" xlink:href="#Безымянный_градиент_13"/><linearGradient id="Безымянный_градиент_13-10" x1="3674.29" y1="1468.12" x2="3771.01" y2="1468.12" gradientTransform="matrix(-0.63, -0.55, -0.54, 0.62, 3862.16, 1462.59)" xlink:href="#Безымянный_градиент_13"/><linearGradient id="Безымянный_градиент_36-16" x1="702.09" y1="319.71" x2="1265.1" y2="644.76" xlink:href="#Безымянный_градиент_36"/><linearGradient id="Безымянный_градиент_13-11" x1="3674.29" y1="1463.74" x2="3771.01" y2="1463.74" gradientTransform="matrix(-0.63, -0.55, -0.54, 0.62, 3862.16, 1462.59)" xlink:href="#Безымянный_градиент_13"/><linearGradient id="Безымянный_градиент_93" x1="369.28" y1="189.42" x2="455.89" y2="239.43" gradientUnits="userSpaceOnUse"><stop offset="0" stop-color="#c81e64"/><stop offset="0.12" stop-color="#a31561"/><stop offset="0.29" stop-color="#730a5d"/><stop offset="0.42" stop-color="#56035b"/><stop offset="0.5" stop-color="#4b005a"/><stop offset="1" stop-color="#320064" stop-opacity="0.2"/></linearGradient><linearGradient id="Безымянный_градиент_145" x1="460.21" y1="204.99" x2="484.96" y2="229.74" gradientUnits="userSpaceOnUse"><stop offset="0" stop-color="#ff503c"/><stop offset="0.42" stop-color="#ff0064"/><stop offset="0.47" stop-color="#fa0064" stop-opacity="0.96"/><stop offset="0.57" stop-color="#ed0064" stop-opacity="0.86"/><stop offset="0.69" stop-color="#d70064" stop-opacity="0.69"/><stop offset="0.85" stop-color="#b80064" stop-opacity="0.46"/><stop offset="1" stop-color="#960064" stop-opacity="0.2"/></linearGradient><linearGradient id="Безымянный_градиент_64" x1="418" y1="185.45" x2="438.79" y2="197.45" gradientUnits="userSpaceOnUse"><stop offset="0" stop-color="#320064"/><stop offset="1" stop-color="#320064" stop-opacity="0"/></linearGradient><linearGradient id="Безымянный_градиент_64-2" x1="458.19" y1="223.09" x2="466.32" y2="227.78" xlink:href="#Безымянный_градиент_64"/><linearGradient id="Безымянный_градиент_64-3" x1="409.87" y1="175.23" x2="416.8" y2="179.23" xlink:href="#Безымянный_градиент_64"/><linearGradient id="Безымянный_градиент_43-3" x1="1415.25" y1="137.78" x2="1548.18" y2="214.52" xlink:href="#Безымянный_градиент_43"/><linearGradient id="Безымянный_градиент_51-2" x1="1409.87" y1="106.19" x2="1543.94" y2="240.27" xlink:href="#Безымянный_градиент_51"/><linearGradient id="Безымянный_градиент_36-17" x1="1429.74" y1="146.15" x2="1533.68" y2="206.16" xlink:href="#Безымянный_градиент_36"/><linearGradient id="Безымянный_градиент_64-4" x1="1473.66" y1="132.07" x2="1483.47" y2="137.73" xlink:href="#Безымянный_градиент_64"/><linearGradient id="Безымянный_градиент_64-5" x1="1492.62" y1="146.56" x2="1513.4" y2="158.56" xlink:href="#Безымянный_градиент_64"/><linearGradient id="Безымянный_градиент_43-4" x1="449.47" y1="204.79" x2="495.69" y2="231.47" xlink:href="#Безымянный_градиент_43"/><linearGradient id="Безымянный_градиент_29" x1="1414.24" y1="634.26" x2="1414.24" y2="371.66" gradientTransform="matrix(0.54, 0.84, -0.84, 0.54, 1254.12, -950.24)" gradientUnits="userSpaceOnUse"><stop offset="0" stop-color="#ffe14b"/><stop offset="0.5" stop-color="#ff3232"/><stop offset="1" stop-color="#320064" stop-opacity="0"/></linearGradient><linearGradient id="Безымянный_градиент_29-2" x1="1756.36" y1="734.35" x2="1756.36" y2="471.75" gradientTransform="matrix(0.29, 0.35, -0.32, 0.27, 1270.01, 70.7)" xlink:href="#Безымянный_градиент_29"/><linearGradient id="Безымянный_градиент_29-3" x1="1429.86" y1="1238.65" x2="1429.86" y2="976.05" gradientTransform="matrix(0.39, 0.35, -0.46, 0.51, 1125.96, -188.55)" xlink:href="#Безымянный_градиент_29"/><linearGradient id="Безымянный_градиент_46" x1="284.3" y1="749.27" x2="284.3" y2="448.16" gradientTransform="translate(528.35 -17.5) rotate(47.01)" xlink:href="#Безымянный_градиент_64"/><linearGradient id="Безымянный_градиент_75" x1="284.3" y1="731.14" x2="284.3" y2="489.91" gradientTransform="translate(528.35 -17.5) rotate(47.01)" gradientUnits="userSpaceOnUse"><stop offset="0" stop-color="#00ffc8"/><stop offset="0.35" stop-color="#0096c8"/><stop offset="0.65" stop-color="#320064" stop-opacity="0.75"/><stop offset="1" stop-color="#320064" stop-opacity="0"/></linearGradient><linearGradient id="Безымянный_градиент_46-2" x1="644.05" y1="830.31" x2="644.05" y2="529.19" gradientTransform="matrix(0.55, 0.47, -0.41, 0.48, 348.67, 291.75)" xlink:href="#Безымянный_градиент_64"/><linearGradient id="Безымянный_градиент_239" x1="648.43" y1="812.49" x2="648.43" y2="571.26" gradientTransform="matrix(0.51, 0.44, -0.42, 0.49, 374.74, 306.15)" xlink:href="#Безымянный_градиент_51"/><linearGradient id="Безымянный_градиент_46-3" x1="514.99" y1="463.65" x2="514.99" y2="162.53" gradientTransform="matrix(0.28, 0.35, -0.35, 0.27, 473.62, 455.68)" xlink:href="#Безымянный_градиент_64"/><linearGradient id="Безымянный_градиент_75-2" x1="510.95" y1="452.51" x2="510.95" y2="211.28" gradientTransform="matrix(0.31, 0.39, -0.35, 0.28, 461.03, 432.01)" xlink:href="#Безымянный_градиент_75"/><radialGradient id="Безымянный_градиент_247" cx="356.05" cy="979.91" r="57.84" gradientTransform="translate(63.76 166.62) scale(0.83 0.83)" gradientUnits="userSpaceOnUse"><stop offset="0" stop-color="#fff"/><stop offset="0.02" stop-color="#fff" stop-opacity="0.93"/><stop offset="0.09" stop-color="#fff" stop-opacity="0.74"/><stop offset="0.17" stop-color="#fff" stop-opacity="0.56"/><stop offset="0.25" stop-color="#fff" stop-opacity="0.41"/><stop offset="0.33" stop-color="#fff" stop-opacity="0.28"/><stop offset="0.43" stop-color="#fff" stop-opacity="0.18"/><stop offset="0.53" stop-color="#fff" stop-opacity="0.1"/><stop offset="0.64" stop-color="#fff" stop-opacity="0.04"/><stop offset="0.77" stop-color="#fff" stop-opacity="0.01"/><stop offset="1" stop-color="#fff" stop-opacity="0"/></radialGradient><linearGradient id="Безымянный_градиент_46-4" x1="835.04" y1="740.82" x2="835.04" y2="639.37" gradientTransform="matrix(0.44, 0.57, -0.5, 0.38, 500.9, 273.36)" xlink:href="#Безымянный_градиент_64"/><linearGradient id="Безымянный_градиент_239-2" x1="854.26" y1="733.21" x2="854.26" y2="651.95" gradientTransform="matrix(0.41, 0.53, -0.51, 0.39, 523.48, 292.79)" xlink:href="#Безымянный_градиент_51"/><radialGradient id="Безымянный_градиент_247-2" cx="552.8" cy="1040.45" r="57.84" gradientTransform="matrix(0, 0.28, -0.28, 0, 789.62, 877.97)" xlink:href="#Безымянный_градиент_247"/></defs><g class="cls-1"><g id="Слой_1" data-name="Слой 1"><rect class="cls-2" width="1920" height="1080"/><rect class="cls-3" x="5" width="1920" height="1080"/><circle class="cls-4" cx="413.58" cy="214.43" r="60"/><circle class="cls-5" cx="414.58" cy="214.43" r="60"/><circle class="cls-6" cx="412.58" cy="214.43" r="72.5"/><circle class="cls-7" cx="600.15" cy="858.07" r="30"/><ellipse class="cls-8" cx="860.3" cy="296.47" rx="326.98" ry="317.93" transform="translate(-5.6 16.79) rotate(-1.11)"/><circle class="cls-9" cx="1624.24" cy="321.39" r="39.41"/><circle class="cls-10" cx="775.55" cy="956.39" r="33.22"/><circle class="cls-11" cx="529.8" cy="472.42" r="55.21"/><circle class="cls-12" cx="184.48" cy="218.13" r="55.21"/><circle class="cls-13" cx="767.36" cy="106.07" r="10.08"/><circle class="cls-14" cx="813.43" cy="149.42" r="14.53"/><circle class="cls-15" cx="712.14" cy="120.67" r="28.76"/><circle class="cls-16" cx="681.22" cy="252.88" r="32.31"/><circle class="cls-17" cx="738.49" cy="167.07" r="26.35"/><circle class="cls-18" cx="570.15" cy="649.56" r="55.21"/><circle class="cls-19" cx="213.78" cy="465.54" r="55.21"/><circle class="cls-20" cx="1489.28" cy="764.15" r="71.59"/><circle class="cls-21" cx="1382.1" cy="396.65" r="71.59"/><circle class="cls-22" cx="1417.69" cy="934.4" r="49.39"/><circle class="cls-23" cx="1735.62" cy="326.02" r="54.71"/><ellipse class="cls-24" cx="1699.39" cy="281.92" rx="41.54" ry="39.47"/><circle class="cls-25" cx="1637.8" cy="410.29" r="52.96"/><path class="cls-26" d="M1238.35,321.39c.53.78,1.08,1.55,1.61,2.34C1239.43,322.94,1238.88,322.17,1238.35,321.39Z"/><path class="cls-27" d="M773.34,641.31S765,504,871.61,532.49a140.42,140.42,0,0,1,53.08,27.77c22.61,18.73,65.83,50.21,86.61,51.17,27.58,1.28,41.07-6.55,64-29.9,26.41-26.91,40.11-63.75,38.85-101.44-.33-10-2.6-21.51-2.51-34.87.5-74.1,44.18-116.22,74.9-136.7a326.67,326.67,0,0,0-113.31-110.37,325.53,325.53,0,0,1,140.12,95.61c1.76-.76,2.75-1.12,2.75-1.12l3.38,4v0q8.79,10.46,16.7,21.63c-58.82-83.49-156-138-265.86-138-3.76,0-7.51.09-11.24.22,35.43,1.72,63.49,14.3,77.11,37.89,30.38,52.62-22.55,140-118.2,195.27-32.78,18.92-66.32,31.6-97.47,38,.18,1.29.33,2.6.42,3.92,1.89,26.47-14.05,49.17-35.6,50.7s-40.54-18.67-42.42-45.14a60,60,0,0,1,0-7.93c-24-5.26-42.74-16.84-53.11-34.81-7.2-12.47-9.71-26.9-8.09-42.4-1.23-7.81.12-17.28,3.82-27.34a323.31,323.31,0,0,0-40,147.2c5.35-22.31,17-38.21,33-41.55,28.86-6,61,30.88,71.69,82.4s-3.94,98.17-32.8,104.18c-21.42,4.47-44.64-14.73-59.56-46a324.74,324.74,0,0,0,82.75,140.3C743.2,736.06,769.94,743.3,773.34,641.31ZM1076,447.6h0a6.08,6.08,0,0,1,1-.07c5,0,9,5.59,9,12.48s-4,12.48-9,12.48a6.08,6.08,0,0,1-1-.07h0c-4.55-.66-8.09-6-8.09-12.41S1071.46,448.26,1076,447.6Zm-45.25,6c23.85-2.86,46.64,23.79,50.91,59.52s-11.59,67-35.43,69.84-46.64-23.79-50.92-59.52S1006.92,456.44,1030.76,453.59Zm-42.23-27.12h0c.63-.06,1.26-.09,1.9-.09,10,0,18.09,7.53,18.09,16.81S1000.43,460,990.44,460c-.64,0-1.27,0-1.9-.09h0c-9.09-.88-16.18-8-16.18-16.72S979.44,427.36,988.53,426.47ZM950.28,531.16h0c.43,0,.87-.06,1.31-.06a13.26,13.26,0,0,1,4.87.91,12.8,12.8,0,0,1,2.12,1.08,10.94,10.94,0,0,1,1,.67,12.1,12.1,0,0,1,2.42,2.48c.22.31.43.63.62,1a11.07,11.07,0,0,1,1.26,3.2,10.78,10.78,0,0,1,.25,2.35c0,6.44-5.59,11.66-12.5,11.66a11.38,11.38,0,0,1-1.31-.07h0c-6.28-.61-11.18-5.56-11.18-11.59S944,531.78,950.28,531.16Z"/><path class="cls-28" d="M803.27,786.25A322.86,322.86,0,0,0,929,828.07a322.94,322.94,0,0,1-118-39.24C808.43,788,805.84,787.15,803.27,786.25Z"/><path class="cls-29" d="M1073.23,198.15a326.67,326.67,0,0,1,113.31,110.37,170.82,170.82,0,0,1,26.81-14.76A325.53,325.53,0,0,0,1073.23,198.15Z"/><path class="cls-28" d="M1073.23,198.15a326.67,326.67,0,0,1,113.31,110.37,170.82,170.82,0,0,1,26.81-14.76A325.53,325.53,0,0,0,1073.23,198.15Z"/><path class="cls-30" d="M1240,323.73a323.48,323.48,0,0,1,55.36,181.49c0,179.49-145.51,325-325,325l-1.87,0-1.87,0A327.85,327.85,0,0,1,929,828.07a327.48,327.48,0,0,0,41.67,2.66c179.5,0,325-145.51,325-325A323.33,323.33,0,0,0,1240,323.73Z"/><path class="cls-30" d="M1236.18,318.26c.73,1,1.45,2.08,2.17,3.13C1237.63,320.35,1236.91,319.3,1236.18,318.26Z"/><path class="cls-30" d="M740.59,735.11l-.2-.08,5.66,5.52h0l.52.5.42.4h0a326.26,326.26,0,0,0,64,47.37l1.13.35A326.28,326.28,0,0,1,740.59,735.11Z"/><path class="cls-31" d="M1219.48,296.6l-3.38-4s-1,.36-2.75,1.12a323.65,323.65,0,0,1,78.23,211.46c0,178.87-144.5,324-323.13,325l1.87,0c179.49,0,325-145.51,325-325A323.48,323.48,0,0,0,1240,323.73c-.53-.79-1.08-1.56-1.61-2.34-.72-1.05-1.44-2.09-2.17-3.13q-7.9-11.17-16.7-21.63Z"/><path class="cls-30" d="M1219.48,296.6l-3.38-4s-1,.36-2.75,1.12a323.65,323.65,0,0,1,78.23,211.46c0,178.87-144.5,324-323.13,325l1.87,0c179.49,0,325-145.51,325-325A323.48,323.48,0,0,0,1240,323.73c-.53-.79-1.08-1.56-1.61-2.34-.72-1.05-1.44-2.09-2.17-3.13q-7.9-11.17-16.7-21.63Z"/><path class="cls-32" d="M909.92,804.18c179.49,0,325-145.51,325-325a323.43,323.43,0,0,0-48.38-170.66c-30.72,20.48-74.4,62.6-74.9,136.7-.09,13.36,2.18,24.88,2.51,34.87,1.26,37.69-12.44,74.53-38.85,101.44-22.93,23.35-36.42,31.18-64,29.9-20.78-1-64-32.44-86.61-51.17a140.42,140.42,0,0,0-53.08-27.77C765,504,773.34,641.31,773.34,641.31c-3.4,102-30.14,94.75-32.75,93.8a326.28,326.28,0,0,0,71.57,54.07A324.54,324.54,0,0,0,909.92,804.18ZM1170.51,622c-1.43,7.48-7.61,12.57-13.81,11.39a11.13,11.13,0,0,1-1.17-.3h0c-5.5-1.79-8.8-8.38-7.46-15.38s6.84-11.9,12.62-11.54h0a8.2,8.2,0,0,1,1.2.15,9.33,9.33,0,0,1,2.21.7,10.49,10.49,0,0,1,3.62,2.81,11.83,11.83,0,0,1,1.35,2,13.79,13.79,0,0,1,1.33,3.49A15.9,15.9,0,0,1,1170.51,622Zm-33-165.15c3.93-35.76,26.47-62.62,50.35-60s40,33.75,36.09,69.51-26.48,62.63-50.35,60S1133.62,492.59,1137.56,456.83ZM1124,623.59h0c.33.11.66.23,1,.36,10,4.09,13.38,19.23,7.44,33.8s-18.89,23.08-28.94,19c-.32-.13-.64-.27-1-.43h0c-.3-.15-.6-.32-.89-.49h0c-8.57-5.12-11.13-19.24-5.58-32.87C1101.82,628.83,1114.13,620.42,1124,623.59ZM1090,589h0c.39,0,.79,0,1.19,0a13.19,13.19,0,0,1,2.29.19c.37.07.73.15,1.09.24a12.1,12.1,0,0,1,3.84,1.79,8.92,8.92,0,0,1,0,15,11.88,11.88,0,0,1-3.84,1.79,10.08,10.08,0,0,1-1.09.24,13.18,13.18,0,0,1-2.29.2c-.4,0-.8,0-1.19-.05h0c-5.7-.52-10.14-4.66-10.14-9.7S1084.31,589.54,1090,589ZM1033.5,737h0a6,6,0,0,1,1-.07c5,0,9,5.59,9,12.48s-4,12.48-9,12.48a6,6,0,0,1-1-.07h0c-4.54-.66-8.09-6-8.09-12.41S1029,737.66,1033.5,737Zm-67.68-31.69a29.09,29.09,0,0,1,2.76,1.31,27.87,27.87,0,0,1,3.74,2.48c.39.31.77.63,1.14.95a29.58,29.58,0,0,1,2.11,2.08,27.59,27.59,0,0,1,1.87,2.3c.3.39.58.8.85,1.22a26.3,26.3,0,0,1,1.52,2.57,31.5,31.5,0,0,1,1.81,4.16c.34,1,.63,1.93.88,2.93a36.17,36.17,0,0,1-1.77,22.37c-7,17.2-25,26.11-40.27,19.9-.49-.2-1-.41-1.45-.64h0c-.47-.23-.93-.46-1.38-.71h0c-13.19-7.29-18.61-24.93-12.06-41,6.77-16.63,23.86-25.51,38.76-20.46h0C964.83,704.93,965.33,705.11,965.82,705.31ZM913.1,615.58c2.46-6.83,9.11-10.78,15.28-9.34h0a11.49,11.49,0,0,1,1.27.37c6.51,2.35,9.65,10.18,7,17.48s-10,11.31-16.56,9a11.91,11.91,0,0,1-1.21-.52h0C913.23,629.69,910.63,622.41,913.1,615.58Zm-76,109.9c2-7.08,8.6-11.51,15.17-10.44h0a12.69,12.69,0,0,1,1.36.3c7,2,10.92,9.71,8.78,17.29s-9.53,12.11-16.53,10.14a13.26,13.26,0,0,1-1.3-.45h0C838.4,739.79,835.09,732.57,837.09,725.48Zm-20.18-54.87c1.36-4.81,5-8.06,8.38-7.63h0a5.58,5.58,0,0,1,.69.13c2,.57,3.42,2.39,4,4.8a11.09,11.09,0,0,1,.32,2.57c0,.3,0,.6,0,.91a13.84,13.84,0,0,1-.49,2.85c-1.45,5.14-5.51,8.5-9.07,7.49a3.71,3.71,0,0,1-.66-.24h0C817,680.08,815.55,675.41,816.91,670.61Zm-12.42,72.75h0c-7.74-2.74-12.13-13.09-9.9-24.14s10.27-18.9,18.47-18.43h0a8,8,0,0,1,.84.08h0a8.55,8.55,0,0,1,.86.14c8.76,1.76,13.93,12.77,11.55,24.59s-11.41,20-20.17,18.22a12.45,12.45,0,0,1-1.51-.42l-.13,0Z"/><path class="cls-30" d="M909.92,804.18c179.49,0,325-145.51,325-325a323.43,323.43,0,0,0-48.38-170.66c-30.72,20.48-74.4,62.6-74.9,136.7-.09,13.36,2.18,24.88,2.51,34.87,1.26,37.69-12.44,74.53-38.85,101.44-22.93,23.35-36.42,31.18-64,29.9-20.78-1-64-32.44-86.61-51.17a140.42,140.42,0,0,0-53.08-27.77C765,504,773.34,641.31,773.34,641.31c-3.4,102-30.14,94.75-32.75,93.8a326.28,326.28,0,0,0,71.57,54.07A324.54,324.54,0,0,0,909.92,804.18ZM1170.51,622c-1.43,7.48-7.61,12.57-13.81,11.39a11.13,11.13,0,0,1-1.17-.3h0c-5.5-1.79-8.8-8.38-7.46-15.38s6.84-11.9,12.62-11.54h0a8.2,8.2,0,0,1,1.2.15,9.33,9.33,0,0,1,2.21.7,10.49,10.49,0,0,1,3.62,2.81,11.83,11.83,0,0,1,1.35,2,13.79,13.79,0,0,1,1.33,3.49A15.9,15.9,0,0,1,1170.51,622Zm-33-165.15c3.93-35.76,26.47-62.62,50.35-60s40,33.75,36.09,69.51-26.48,62.63-50.35,60S1133.62,492.59,1137.56,456.83ZM1124,623.59h0c.33.11.66.23,1,.36,10,4.09,13.38,19.23,7.44,33.8s-18.89,23.08-28.94,19c-.32-.13-.64-.27-1-.43h0c-.3-.15-.6-.32-.89-.49h0c-8.57-5.12-11.13-19.24-5.58-32.87C1101.82,628.83,1114.13,620.42,1124,623.59ZM1090,589h0c.39,0,.79,0,1.19,0a13.19,13.19,0,0,1,2.29.19c.37.07.73.15,1.09.24a12.1,12.1,0,0,1,3.84,1.79,8.92,8.92,0,0,1,0,15,11.88,11.88,0,0,1-3.84,1.79,10.08,10.08,0,0,1-1.09.24,13.18,13.18,0,0,1-2.29.2c-.4,0-.8,0-1.19-.05h0c-5.7-.52-10.14-4.66-10.14-9.7S1084.31,589.54,1090,589ZM1033.5,737h0a6,6,0,0,1,1-.07c5,0,9,5.59,9,12.48s-4,12.48-9,12.48a6,6,0,0,1-1-.07h0c-4.54-.66-8.09-6-8.09-12.41S1029,737.66,1033.5,737Zm-67.68-31.69a29.09,29.09,0,0,1,2.76,1.31,27.87,27.87,0,0,1,3.74,2.48c.39.31.77.63,1.14.95a29.58,29.58,0,0,1,2.11,2.08,27.59,27.59,0,0,1,1.87,2.3c.3.39.58.8.85,1.22a26.3,26.3,0,0,1,1.52,2.57,31.5,31.5,0,0,1,1.81,4.16c.34,1,.63,1.93.88,2.93a36.17,36.17,0,0,1-1.77,22.37c-7,17.2-25,26.11-40.27,19.9-.49-.2-1-.41-1.45-.64h0c-.47-.23-.93-.46-1.38-.71h0c-13.19-7.29-18.61-24.93-12.06-41,6.77-16.63,23.86-25.51,38.76-20.46h0C964.83,704.93,965.33,705.11,965.82,705.31ZM913.1,615.58c2.46-6.83,9.11-10.78,15.28-9.34h0a11.49,11.49,0,0,1,1.27.37c6.51,2.35,9.65,10.18,7,17.48s-10,11.31-16.56,9a11.91,11.91,0,0,1-1.21-.52h0C913.23,629.69,910.63,622.41,913.1,615.58Zm-76,109.9c2-7.08,8.6-11.51,15.17-10.44h0a12.69,12.69,0,0,1,1.36.3c7,2,10.92,9.71,8.78,17.29s-9.53,12.11-16.53,10.14a13.26,13.26,0,0,1-1.3-.45h0C838.4,739.79,835.09,732.57,837.09,725.48Zm-20.18-54.87c1.36-4.81,5-8.06,8.38-7.63h0a5.58,5.58,0,0,1,.69.13c2,.57,3.42,2.39,4,4.8a11.09,11.09,0,0,1,.32,2.57c0,.3,0,.6,0,.91a13.84,13.84,0,0,1-.49,2.85c-1.45,5.14-5.51,8.5-9.07,7.49a3.71,3.71,0,0,1-.66-.24h0C817,680.08,815.55,675.41,816.91,670.61Zm-12.42,72.75h0c-7.74-2.74-12.13-13.09-9.9-24.14s10.27-18.9,18.47-18.43h0a8,8,0,0,1,.84.08h0a8.55,8.55,0,0,1,.86.14c8.76,1.76,13.93,12.77,11.55,24.59s-11.41,20-20.17,18.22a12.45,12.45,0,0,1-1.51-.42l-.13,0Z"/><path class="cls-28" d="M968.45,830.2a323.38,323.38,0,0,1-156.29-41l-1.13-.35a322.94,322.94,0,0,0,118,39.24,327.85,327.85,0,0,0,37.55,2.15Z"/><path class="cls-30" d="M968.45,830.2a323.38,323.38,0,0,1-156.29-41l-1.13-.35a322.94,322.94,0,0,0,118,39.24,327.85,327.85,0,0,0,37.55,2.15Z"/><path class="cls-33" d="M1291.58,505.22a323.65,323.65,0,0,0-78.23-211.46,170.82,170.82,0,0,0-26.81,14.76,323.43,323.43,0,0,1,48.38,170.66c0,179.49-145.51,325-325,325a324.54,324.54,0,0,1-97.76-15,323.38,323.38,0,0,0,156.29,41C1147.08,829.19,1291.58,684.09,1291.58,505.22Z"/><path class="cls-34" d="M1291.58,505.22a323.65,323.65,0,0,0-78.23-211.46,170.82,170.82,0,0,0-26.81,14.76,323.43,323.43,0,0,1,48.38,170.66c0,179.49-145.51,325-325,325a324.54,324.54,0,0,1-97.76-15,323.38,323.38,0,0,0,156.29,41C1147.08,829.19,1291.58,684.09,1291.58,505.22Z"/><path class="cls-30" d="M1291.58,505.22a323.65,323.65,0,0,0-78.23-211.46,170.82,170.82,0,0,0-26.81,14.76,323.43,323.43,0,0,1,48.38,170.66c0,179.49-145.51,325-325,325a324.54,324.54,0,0,1-97.76-15,323.38,323.38,0,0,0,156.29,41C1147.08,829.19,1291.58,684.09,1291.58,505.22Z"/><path class="cls-35" d="M975.57,712.13a27.59,27.59,0,0,1,1.87,2.3A27.59,27.59,0,0,0,975.57,712.13Z"/><path class="cls-35" d="M981.62,722.38c.34,1,.63,1.93.88,2.93C982.25,724.31,982,723.33,981.62,722.38Z"/><path class="cls-35" d="M978.29,715.65a26.3,26.3,0,0,1,1.52,2.57A26.3,26.3,0,0,0,978.29,715.65Z"/><path class="cls-35" d="M968.58,706.62a27.87,27.87,0,0,1,3.74,2.48A27.87,27.87,0,0,0,968.58,706.62Z"/><path class="cls-35" d="M968.58,706.62a29.09,29.09,0,0,0-2.76-1.31c-.49-.2-1-.38-1.49-.55.5.17,1,.35,1.49.55A29.09,29.09,0,0,1,968.58,706.62Z"/><path class="cls-35" d="M974.89,745.3c6.55-16.08,1.13-33.71-12.06-41,.49.13,1,.29,1.48.45-14.9-5-32,3.83-38.76,20.46-6.55,16.08-1.13,33.72,12.06,41C952.15,770.22,968.34,761.38,974.89,745.3Z"/><path class="cls-35" d="M939,766.93c-.47-.23-.93-.46-1.38-.71C938.06,766.47,938.52,766.7,939,766.93Z"/><path class="cls-35" d="M940.46,767.58c-.49-.2-1-.41-1.45-.64C939.49,767.17,940,767.38,940.46,767.58Z"/><path class="cls-35" d="M975.57,712.13a29.58,29.58,0,0,0-2.11-2.08A29.58,29.58,0,0,1,975.57,712.13Z"/><path class="cls-36" d="M962.83,704.3c13.19,7.29,18.61,24.92,12.06,41s-22.74,24.92-37.28,20.92h0c.45.25.91.48,1.38.71h0c.48.23,1,.44,1.45.64,15.24,6.21,33.27-2.7,40.27-19.9a36.17,36.17,0,0,0,1.77-22.37c-.25-1-.54-2-.88-2.93a31.5,31.5,0,0,0-1.81-4.16,26.3,26.3,0,0,0-1.52-2.57c-.27-.42-.55-.83-.85-1.22a27.59,27.59,0,0,0-1.87-2.3,29.58,29.58,0,0,0-2.11-2.08c-.37-.32-.75-.64-1.14-.95a27.87,27.87,0,0,0-3.74-2.48,29.09,29.09,0,0,0-2.76-1.31c-.49-.2-1-.38-1.49-.55h0C963.82,704.59,963.32,704.43,962.83,704.3Z"/><path class="cls-35" d="M1090,589c.39,0,.79,0,1.19,0C1090.81,589,1090.41,589,1090,589Z"/><path class="cls-35" d="M1090,608.41c5.7-.52,10.14-4.66,10.14-9.7s-4.44-9.17-10.14-9.69c-5.7.52-10.14,4.66-10.14,9.69S1084.31,607.89,1090,608.41Z"/><path class="cls-35" d="M1091.21,608.46c-.4,0-.8,0-1.19-.05C1090.41,608.44,1090.81,608.46,1091.21,608.46Z"/><path class="cls-36" d="M1100.15,598.71c0,5-4.44,9.18-10.14,9.7h0c.39,0,.79.05,1.19.05a13.18,13.18,0,0,0,2.29-.2,10.08,10.08,0,0,0,1.09-.24,11.88,11.88,0,0,0,3.84-1.79,8.92,8.92,0,0,0,0-15,12.1,12.1,0,0,0-3.84-1.79c-.36-.09-.72-.17-1.09-.24a13.19,13.19,0,0,0-2.29-.19c-.4,0-.8,0-1.19,0h0C1095.71,589.54,1100.15,593.68,1100.15,598.71Z"/><path class="cls-35" d="M1168.13,621.52c1.34-7-2-13.58-7.45-15.38-5.78-.36-11.28,4.55-12.62,11.54s2,13.59,7.46,15.38C1161.3,633.43,1166.8,628.51,1168.13,621.52Z"/><path class="cls-35" d="M1167.71,609.81a10.49,10.49,0,0,0-3.62-2.81A10.49,10.49,0,0,1,1167.71,609.81Z"/><path class="cls-35" d="M1169.06,611.78a13.79,13.79,0,0,1,1.33,3.49A13.79,13.79,0,0,0,1169.06,611.78Z"/><path class="cls-35" d="M1156.7,633.37a11.13,11.13,0,0,1-1.17-.3A11.13,11.13,0,0,0,1156.7,633.37Z"/><path class="cls-35" d="M1160.68,606.15a8.2,8.2,0,0,1,1.2.15A8.2,8.2,0,0,0,1160.68,606.15Z"/><path class="cls-36" d="M1169.06,611.78a11.83,11.83,0,0,0-1.35-2,10.49,10.49,0,0,0-3.62-2.81,9.33,9.33,0,0,0-2.21-.7,8.2,8.2,0,0,0-1.2-.15h0c5.5,1.8,8.79,8.39,7.45,15.38s-6.83,11.91-12.61,11.54h0a11.13,11.13,0,0,0,1.17.3c6.2,1.18,12.38-3.91,13.81-11.39a15.9,15.9,0,0,0-.12-6.71A13.79,13.79,0,0,0,1169.06,611.78Z"/><path class="cls-35" d="M988.53,459.91c9.09-.89,16.17-8,16.17-16.72s-7.08-15.82-16.17-16.72c-9.09.89-16.18,8-16.18,16.72S979.44,459,988.53,459.91Z"/><path class="cls-35" d="M990.44,460c-.64,0-1.27,0-1.9-.09C989.17,460,989.8,460,990.44,460Z"/><path class="cls-35" d="M988.54,426.47c.63-.06,1.26-.09,1.9-.09C989.8,426.38,989.17,426.41,988.54,426.47Z"/><path class="cls-36" d="M1004.7,443.19c0,8.69-7.08,15.83-16.17,16.72h0c.63.06,1.26.09,1.9.09,10,0,18.09-7.53,18.09-16.82s-8.1-16.81-18.09-16.81c-.64,0-1.27,0-1.9.09h0C997.62,427.37,1004.7,434.51,1004.7,443.19Z"/><path class="cls-35" d="M950.29,531.16c.43,0,.87-.06,1.31-.06C951.16,531.1,950.72,531.12,950.29,531.16Z"/><path class="cls-35" d="M951.6,554.41a11.38,11.38,0,0,1-1.31-.07A11.38,11.38,0,0,0,951.6,554.41Z"/><path class="cls-35" d="M962.59,537.2a11.07,11.07,0,0,1,1.26,3.2A11.07,11.07,0,0,0,962.59,537.2Z"/><path class="cls-35" d="M956.47,532a12.8,12.8,0,0,1,2.12,1.08A12.8,12.8,0,0,0,956.47,532Z"/><path class="cls-35" d="M962,536.24a12.1,12.1,0,0,0-2.42-2.48A12.1,12.1,0,0,1,962,536.24Z"/><path class="cls-35" d="M950.28,554.34c6.28-.62,11.17-5.57,11.17-11.59s-4.89-11-11.17-11.59c-6.28.62-11.18,5.57-11.18,11.59S944,553.73,950.28,554.34Z"/><path class="cls-36" d="M961.45,542.75c0,6-4.89,11-11.17,11.59h0a11.38,11.38,0,0,0,1.31.07c6.91,0,12.5-5.22,12.5-11.66a10.78,10.78,0,0,0-.25-2.35,11.07,11.07,0,0,0-1.26-3.2c-.19-.33-.4-.65-.62-1a12.1,12.1,0,0,0-2.42-2.48,10.94,10.94,0,0,0-1-.67,12.8,12.8,0,0,0-2.12-1.08,13.26,13.26,0,0,0-4.87-.91c-.44,0-.88,0-1.31.06h0C956.56,531.78,961.45,536.73,961.45,542.75Z"/><path class="cls-35" d="M823,724.93c2.22-11.06-2.16-21.4-9.9-24.14-8.2-.47-16.24,7.37-18.47,18.43s2.16,21.4,9.9,24.14C812.69,743.82,820.73,736,823,724.93Z"/><path class="cls-35" d="M813.06,700.79a8,8,0,0,1,.84.08A8,8,0,0,0,813.06,700.79Z"/><path class="cls-35" d="M804.51,743.36l.13,0Z"/><path class="cls-35" d="M813.91,700.87a8.55,8.55,0,0,1,.86.14A8.55,8.55,0,0,0,813.91,700.87Z"/><path class="cls-36" d="M806.15,743.82c8.76,1.76,17.79-6.39,20.17-18.22s-2.79-22.83-11.55-24.59a8.55,8.55,0,0,0-.86-.14h0a8,8,0,0,0-.84-.08h0c7.74,2.74,12.12,13.08,9.9,24.14s-10.27,18.89-18.47,18.43h0l.13,0A12.45,12.45,0,0,0,806.15,743.82Z"/><path class="cls-35" d="M1033.51,737a6,6,0,0,1,1-.07A6,6,0,0,0,1033.51,737Z"/><path class="cls-35" d="M1033.5,761.82c4.54-.66,8.08-6,8.08-12.41S1038,737.66,1033.5,737c-4.54.66-8.09,6-8.09,12.41S1029,761.16,1033.5,761.82Z"/><path class="cls-35" d="M1034.46,761.89a6,6,0,0,1-1-.07A6,6,0,0,0,1034.46,761.89Z"/><path class="cls-36" d="M1041.58,749.41c0,6.44-3.54,11.75-8.08,12.41h0a6,6,0,0,0,1,.07c5,0,9-5.59,9-12.48s-4-12.48-9-12.48a6,6,0,0,0-1,.07h0C1038,737.66,1041.58,743,1041.58,749.41Z"/><path class="cls-35" d="M920.12,633.05a11.91,11.91,0,0,1-1.21-.52A11.91,11.91,0,0,0,920.12,633.05Z"/><path class="cls-35" d="M928.39,606.24a11.49,11.49,0,0,1,1.27.37A11.49,11.49,0,0,0,928.39,606.24Z"/><path class="cls-35" d="M918.9,632.53c6.18,1.43,12.82-2.52,15.28-9.35s-.13-14.1-5.8-16.94c-6.17-1.44-12.82,2.51-15.28,9.34S913.23,629.69,918.9,632.53Z"/><path class="cls-36" d="M934.18,623.18c-2.46,6.83-9.1,10.78-15.28,9.35h0a11.91,11.91,0,0,0,1.21.52c6.51,2.35,13.93-1.66,16.56-9s-.51-15.13-7-17.48a11.49,11.49,0,0,0-1.27-.37h0C934.05,609.08,936.64,616.36,934.18,623.18Z"/><path class="cls-35" d="M845.87,742.77a13.26,13.26,0,0,1-1.3-.45A13.26,13.26,0,0,0,845.87,742.77Z"/><path class="cls-35" d="M844.56,742.31c6.56,1.07,13.16-3.36,15.16-10.44s-1.31-14.31-7.46-16.83c-6.57-1.07-13.18,3.36-15.17,10.44S838.4,739.79,844.56,742.31Z"/><path class="cls-35" d="M852.26,715a12.69,12.69,0,0,1,1.36.3A12.69,12.69,0,0,0,852.26,715Z"/><path class="cls-36" d="M859.72,731.87c-2,7.08-8.6,11.51-15.16,10.44h0a13.26,13.26,0,0,0,1.3.45c7,2,14.4-2.57,16.53-10.14s-1.79-15.32-8.78-17.29a12.69,12.69,0,0,0-1.36-.3h0C858.41,717.56,861.72,724.79,859.72,731.87Z"/><path class="cls-35" d="M820.06,681.49c3.38.42,7-2.83,8.37-7.63s0-9.48-3.14-10.88c-3.38-.43-7,2.82-8.38,7.63S817,680.08,820.06,681.49Z"/><path class="cls-35" d="M820.73,681.73a3.71,3.71,0,0,1-.66-.24A3.71,3.71,0,0,0,820.73,681.73Z"/><path class="cls-35" d="M825.29,663a5.58,5.58,0,0,1,.69.13A5.58,5.58,0,0,0,825.29,663Z"/><path class="cls-35" d="M830,667.91a11.09,11.09,0,0,1,.32,2.57A11.09,11.09,0,0,0,830,667.91Z"/><path class="cls-36" d="M828.43,673.86c-1.35,4.8-5,8-8.37,7.63h0a3.71,3.71,0,0,0,.66.24c3.56,1,7.62-2.35,9.07-7.49a13.84,13.84,0,0,0,.49-2.85c0-.31,0-.61,0-.91a11.09,11.09,0,0,0-.32-2.57c-.6-2.41-2-4.23-4-4.8a5.58,5.58,0,0,0-.69-.13h0C828.38,664.38,829.79,669.05,828.43,673.86Z"/><path class="cls-35" d="M1103.51,676.74c-.32-.13-.64-.27-1-.43C1102.87,676.47,1103.19,676.61,1103.51,676.74Z"/><path class="cls-35" d="M1101.65,675.81c9.71,2.32,21.4-6,26.95-19.62s3-27.76-5.58-32.87c.34.08.67.17,1,.27-9.89-3.17-22.2,5.24-28,19.35C1090.52,656.57,1093.08,670.69,1101.65,675.81Z"/><path class="cls-35" d="M1124,623.59c.33.11.66.23,1,.36C1124.69,623.82,1124.36,623.7,1124,623.59Z"/><path class="cls-35" d="M1102.54,676.3c-.3-.15-.6-.32-.89-.49C1101.94,676,1102.24,676.15,1102.54,676.3Z"/><path class="cls-36" d="M1128.6,656.19c-5.55,13.63-17.24,21.94-26.95,19.62h0c.29.17.59.34.89.49h0c.31.16.63.3,1,.43,10,4.09,23-4.41,28.94-19S1135.06,628,1125,624c-.32-.13-.65-.25-1-.36h0c-.33-.1-.66-.19-1-.27C1131.59,628.43,1134.15,642.55,1128.6,656.19Z"/><path class="cls-35" d="M1076,472.42c4.54-.66,8.08-6,8.08-12.41s-3.54-11.75-8.08-12.41c-4.55.66-8.09,6-8.09,12.41S1071.46,471.76,1076,472.42Z"/><path class="cls-35" d="M1077,472.49a6.08,6.08,0,0,1-1-.07A6.08,6.08,0,0,0,1077,472.49Z"/><path class="cls-35" d="M1076,447.6a6.08,6.08,0,0,1,1-.07A6.08,6.08,0,0,0,1076,447.6Z"/><path class="cls-36" d="M1084.09,460c0,6.45-3.54,11.75-8.08,12.41h0a6.08,6.08,0,0,0,1,.07c5,0,9-5.59,9-12.48s-4-12.48-9-12.48a6.08,6.08,0,0,0-1,.07h0C1080.55,448.26,1084.09,453.57,1084.09,460Z"/><path class="cls-37" d="M1173.65,526.34c23.87,2.63,46.42-24.23,50.35-60s-12.22-66.88-36.09-69.51-46.42,24.24-50.35,60S1149.78,523.71,1173.65,526.34Zm-32.46-75.07c4.62-24.16,19.07-42.48,34.71-46h0l.15,0c.39-.09.79-.17,1.19-.23l.46-.09c.56-.08,1.12-.15,1.68-.2l.44,0,.94-.05h1.32l.55,0c.37,0,.73,0,1.1.08l.51.05c.52.07,1,.14,1.57.24a23.19,23.19,0,0,1,5.13,1.61,26.13,26.13,0,0,1,3.17,1.7,31.14,31.14,0,0,1,9.25,9.41,48.64,48.64,0,0,1,6,13.81c.4,1.48.75,3,1.05,4.58s.54,3.16.73,4.79a80.56,80.56,0,0,1-8.77,45.86q-1.17,2.17-2.46,4.19t-2.66,3.86a48.6,48.6,0,0,1-10.69,10.62,31.13,31.13,0,0,1-12.07,5.32,22.84,22.84,0,0,1-3.57.41,23.11,23.11,0,0,1-5.37-.39c-.52-.1-1-.23-1.55-.36l-.49-.13-1-.34-.53-.17c-.41-.15-.81-.32-1.22-.49l-.85-.4-.4-.19c-.5-.26-1-.53-1.49-.81l-.39-.25c-.35-.21-.69-.43-1-.65l-.12-.08h0C1143.24,497.79,1136.57,475.42,1141.19,451.27Z"/><path class="cls-30" d="M1173.65,526.34c23.87,2.63,46.42-24.23,50.35-60s-12.22-66.88-36.09-69.51-46.42,24.24-50.35,60S1149.78,523.71,1173.65,526.34Zm-32.46-75.07c4.62-24.16,19.07-42.48,34.71-46h0l.15,0c.39-.09.79-.17,1.19-.23l.46-.09c.56-.08,1.12-.15,1.68-.2l.44,0,.94-.05h1.32l.55,0c.37,0,.73,0,1.1.08l.51.05c.52.07,1,.14,1.57.24a23.19,23.19,0,0,1,5.13,1.61,26.13,26.13,0,0,1,3.17,1.7,31.14,31.14,0,0,1,9.25,9.41,48.64,48.64,0,0,1,6,13.81c.4,1.48.75,3,1.05,4.58s.54,3.16.73,4.79a80.56,80.56,0,0,1-8.77,45.86q-1.17,2.17-2.46,4.19t-2.66,3.86a48.6,48.6,0,0,1-10.69,10.62,31.13,31.13,0,0,1-12.07,5.32,22.84,22.84,0,0,1-3.57.41,23.11,23.11,0,0,1-5.37-.39c-.52-.1-1-.23-1.55-.36l-.49-.13-1-.34-.53-.17c-.41-.15-.81-.32-1.22-.49l-.85-.4-.4-.19c-.5-.26-1-.53-1.49-.81l-.39-.25c-.35-.21-.69-.43-1-.65l-.12-.08h0C1143.24,497.79,1136.57,475.42,1141.19,451.27Z"/><path class="cls-38" d="M1173.65,526.34c23.87,2.63,46.42-24.23,50.35-60s-12.22-66.88-36.09-69.51-46.42,24.24-50.35,60S1149.78,523.71,1173.65,526.34Zm-32.46-75.07c4.62-24.16,19.07-42.48,34.71-46h0l.15,0c.39-.09.79-.17,1.19-.23l.46-.09c.56-.08,1.12-.15,1.68-.2l.44,0,.94-.05h1.32l.55,0c.37,0,.73,0,1.1.08l.51.05c.52.07,1,.14,1.57.24a23.19,23.19,0,0,1,5.13,1.61,26.13,26.13,0,0,1,3.17,1.7,31.14,31.14,0,0,1,9.25,9.41,48.64,48.64,0,0,1,6,13.81c.4,1.48.75,3,1.05,4.58s.54,3.16.73,4.79a80.56,80.56,0,0,1-8.77,45.86q-1.17,2.17-2.46,4.19t-2.66,3.86a48.6,48.6,0,0,1-10.69,10.62,31.13,31.13,0,0,1-12.07,5.32,22.84,22.84,0,0,1-3.57.41,23.11,23.11,0,0,1-5.37-.39c-.52-.1-1-.23-1.55-.36l-.49-.13-1-.34-.53-.17c-.41-.15-.81-.32-1.22-.49l-.85-.4-.4-.19c-.5-.26-1-.53-1.49-.81l-.39-.25c-.35-.21-.69-.43-1-.65l-.12-.08h0C1143.24,497.79,1136.57,475.42,1141.19,451.27Z"/><path class="cls-39" d="M995.32,523.43c4.28,35.73,27.07,62.38,50.92,59.52s39.71-34.12,35.43-69.84-27.06-62.38-50.91-59.52S991.05,487.71,995.32,523.43Zm30.54-57h0c.63-.12,1.26-.23,1.91-.31a23.25,23.25,0,0,1,3.72-.15,25,25,0,0,1,6.77,1.21c.34.11.69.22,1,.35a27.84,27.84,0,0,1,3,1.29,32.93,32.93,0,0,1,3.44,2c.56.37,1.12.75,1.67,1.16,6.45,4.73,12.1,12.05,16.28,21.07.47,1,.93,2.06,1.37,3.12a78.85,78.85,0,0,1,2.62,7.55c.31,1,.59,2.1.85,3.16q.62,2.43,1.09,4.94.51,2.79.86,5.67c3.68,30.73-9.5,57.58-29.44,60-.64.08-1.29.13-1.93.15h0c-19.21.72-37.23-21.75-40.79-51.47S1007,470.22,1025.86,466.39Z"/><path class="cls-40" d="M995.32,523.43c4.28,35.73,27.07,62.38,50.92,59.52s39.71-34.12,35.43-69.84-27.06-62.38-50.91-59.52S991.05,487.71,995.32,523.43Zm30.54-57h0c.63-.12,1.26-.23,1.91-.31a23.25,23.25,0,0,1,3.72-.15,25,25,0,0,1,6.77,1.21c.34.11.69.22,1,.35a27.84,27.84,0,0,1,3,1.29,32.93,32.93,0,0,1,3.44,2c.56.37,1.12.75,1.67,1.16,6.45,4.73,12.1,12.05,16.28,21.07.47,1,.93,2.06,1.37,3.12a78.85,78.85,0,0,1,2.62,7.55c.31,1,.59,2.1.85,3.16q.62,2.43,1.09,4.94.51,2.79.86,5.67c3.68,30.73-9.5,57.58-29.44,60-.64.08-1.29.13-1.93.15h0c-19.21.72-37.23-21.75-40.79-51.47S1007,470.22,1025.86,466.39Z"/><path class="cls-41" d="M815.91,454.11c2.68,22.36-6.75,42.15-21.39,46.23-.51.14-1,.26-1.53.36h0c-.51.11-1,.19-1.57.26-16.4,2-32-15.84-34.87-39.75-.09-.74-.17-1.49-.23-2.23-.1-1.22-.16-2.43-.2-3.64q-6.83-.79-13.21-2.2a60,60,0,0,0,0,7.93c1.88,26.47,20.88,46.68,42.42,45.14s37.49-24.23,35.6-50.7c-.09-1.32-.24-2.63-.42-3.92-1.61.33-3.22.65-4.82,1C815.77,453.06,815.85,453.58,815.91,454.11Z"/><path class="cls-42" d="M815.91,454.11c2.68,22.36-6.75,42.15-21.39,46.23-.51.14-1,.26-1.53.36h0c-.51.11-1,.19-1.57.26-16.4,2-32-15.84-34.87-39.75-.09-.74-.17-1.49-.23-2.23-.1-1.22-.16-2.43-.2-3.64q-6.83-.79-13.21-2.2a60,60,0,0,0,0,7.93c1.88,26.47,20.88,46.68,42.42,45.14s37.49-24.23,35.6-50.7c-.09-1.32-.24-2.63-.42-3.92-1.61.33-3.22.65-4.82,1C815.77,453.06,815.85,453.58,815.91,454.11Z"/><path class="cls-43" d="M645.47,495.79c-4.28,17.83-4.53,39.75.24,62.63a161.15,161.15,0,0,0,12.13,36.39,324.94,324.94,0,0,1-12.52-89.59C645.32,502.07,645.38,498.93,645.47,495.79Z"/><path class="cls-44" d="M717.4,640.82c28.86-6,43.54-52.65,32.8-104.18s-42.83-88.41-71.69-82.4c-16,3.34-27.69,19.24-33,41.55-.09,3.14-.15,6.28-.15,9.43a324.94,324.94,0,0,0,12.52,89.59C672.76,626.09,696,645.29,717.4,640.82Zm-44.94-54.4q-1.51-3-2.91-6.16a135.27,135.27,0,0,1-10-65.76q.38-3.45.94-6.74c.38-2.19.82-4.33,1.32-6.4a70.67,70.67,0,0,1,7.41-19.05,38,38,0,0,1,11.26-12.54,26.83,26.83,0,0,1,3.84-2.13,24,24,0,0,1,6.2-1.85c.63-.09,1.26-.15,1.89-.2l.61,0c.45,0,.89,0,1.34,0H695q.79,0,1.59.12l1.13.15.53.09c.68.12,1.35.26,2,.43l.55.16c.48.14,1,.27,1.43.43l.18.05h0c18.8,6.41,36,33.65,41.31,68.29s-3,65.77-19,77.51h0l-.15.1c-.41.3-.82.57-1.24.84l-.48.32c-.59.36-1.19.71-1.8,1-.16.08-.32.17-.48.24l-1,.49c-.49.21-1,.41-1.47.58-.21.08-.43.14-.64.21-.42.14-.84.27-1.27.38l-.6.15c-.61.15-1.23.28-1.86.37a23.84,23.84,0,0,1-6.48.1,26,26,0,0,1-4.29-.89,37.81,37.81,0,0,1-14.49-8.6,70.78,70.78,0,0,1-12.77-16C674.53,590.3,673.48,588.4,672.46,586.42Z"/><path class="cls-45" d="M717.4,640.82c28.86-6,43.54-52.65,32.8-104.18s-42.83-88.41-71.69-82.4c-16,3.34-27.69,19.24-33,41.55-.09,3.14-.15,6.28-.15,9.43a324.94,324.94,0,0,0,12.52,89.59C672.76,626.09,696,645.29,717.4,640.82Zm-44.94-54.4q-1.51-3-2.91-6.16a135.27,135.27,0,0,1-10-65.76q.38-3.45.94-6.74c.38-2.19.82-4.33,1.32-6.4a70.67,70.67,0,0,1,7.41-19.05,38,38,0,0,1,11.26-12.54,26.83,26.83,0,0,1,3.84-2.13,24,24,0,0,1,6.2-1.85c.63-.09,1.26-.15,1.89-.2l.61,0c.45,0,.89,0,1.34,0H695q.79,0,1.59.12l1.13.15.53.09c.68.12,1.35.26,2,.43l.55.16c.48.14,1,.27,1.43.43l.18.05h0c18.8,6.41,36,33.65,41.31,68.29s-3,65.77-19,77.51h0l-.15.1c-.41.3-.82.57-1.24.84l-.48.32c-.59.36-1.19.71-1.8,1-.16.08-.32.17-.48.24l-1,.49c-.49.21-1,.41-1.47.58-.21.08-.43.14-.64.21-.42.14-.84.27-1.27.38l-.6.15c-.61.15-1.23.28-1.86.37a23.84,23.84,0,0,1-6.48.1,26,26,0,0,1-4.29-.89,37.81,37.81,0,0,1-14.49-8.6,70.78,70.78,0,0,1-12.77-16C674.53,590.3,673.48,588.4,672.46,586.42Z"/><path class="cls-46" d="M706.47,314.09l0,0c-9.7,11.19-16.78,23.19-20.92,34.46q6.09-11.07,13-21.59Q702.15,320.55,706.47,314.09Z"/><path class="cls-47" d="M681.69,375.93c1.63-15.54,7.43-32.15,16.84-48.93q-6.91,10.51-13,21.59C681.81,358.65,680.46,368.12,681.69,375.93Z"/><path class="cls-48" d="M681.69,375.93c1.63-15.54,7.43-32.15,16.84-48.93q-6.91,10.51-13,21.59C681.81,358.65,680.46,368.12,681.69,375.93Z"/><path class="cls-35" d="M1191.14,460.82c4.62-24.14-2-46.51-15.24-55.6-15.64,3.57-30.09,21.89-34.71,46s2,46.52,15.26,55.6C1172.08,503.29,1186.52,485,1191.14,460.82Z"/><path class="cls-36" d="M1191.14,460.82c-4.62,24.15-19.06,42.47-34.69,46.05h0l.12.08c.34.22.68.44,1,.65l.39.25c.49.28,1,.55,1.49.81l.4.19.85.4c.41.17.81.34,1.22.49l.53.17,1,.34.49.13c.51.13,1,.26,1.55.36a23.11,23.11,0,0,0,5.37.39,22.84,22.84,0,0,0,3.57-.41,31.13,31.13,0,0,0,12.07-5.32,48.6,48.6,0,0,0,10.69-10.62q1.38-1.85,2.66-3.86t2.46-4.19a80.56,80.56,0,0,0,8.77-45.86c-.19-1.63-.43-3.23-.73-4.79s-.65-3.1-1.05-4.58a48.64,48.64,0,0,0-6-13.81,31.14,31.14,0,0,0-9.25-9.41,26.13,26.13,0,0,0-3.17-1.7,23.19,23.19,0,0,0-5.13-1.61c-.53-.1-1-.17-1.57-.24l-.51-.05c-.37,0-.73-.06-1.1-.08l-.55,0h-1.32l-.94.05-.44,0c-.56.05-1.12.12-1.68.2l-.46.09c-.4.06-.8.14-1.19.23l-.15,0h0C1189.1,414.31,1195.76,436.68,1191.14,460.82Z"/><path class="cls-35" d="M1031.52,465.92a25,25,0,0,1,6.77,1.21A25,25,0,0,0,1031.52,465.92Z"/><path class="cls-35" d="M1039.32,467.48a27.84,27.84,0,0,1,3,1.29A27.84,27.84,0,0,0,1039.32,467.48Z"/><path class="cls-35" d="M1063.76,493c.47,1,.93,2.06,1.37,3.12C1064.69,495,1064.23,494,1063.76,493Z"/><path class="cls-35" d="M1025.89,466.38c.63-.13,1.26-.23,1.91-.31C1027.15,466.15,1026.52,466.26,1025.89,466.38Z"/><path class="cls-35" d="M1039.15,577.51c-.63,0-1.27,0-1.9,0,17.79-5.12,29.09-30.45,25.65-59.19s-20.4-50.7-38.89-51.48c.61-.17,1.23-.32,1.85-.45-18.84,3.83-31.06,29.92-27.5,59.65S1019.94,578.23,1039.15,577.51Z"/><path class="cls-35" d="M1067.75,503.63c.31,1,.59,2.1.85,3.16C1068.34,505.73,1068.06,504.67,1067.75,503.63Z"/><path class="cls-35" d="M1041.11,577.36c-.64.08-1.29.13-1.93.15C1039.82,577.49,1040.47,577.44,1041.11,577.36Z"/><path class="cls-36" d="M1062.9,518.32c3.44,28.74-7.86,54.07-25.65,59.19.63,0,1.27,0,1.9,0h0c.64,0,1.29-.07,1.93-.15,19.94-2.38,33.12-29.23,29.44-60q-.35-2.88-.86-5.67-.48-2.5-1.09-4.94c-.26-1.06-.54-2.12-.85-3.16a78.85,78.85,0,0,0-2.62-7.55c-.44-1.06-.9-2.1-1.37-3.12-4.18-9-9.83-16.34-16.28-21.07-.55-.41-1.11-.79-1.67-1.16a32.93,32.93,0,0,0-3.44-2,27.84,27.84,0,0,0-3-1.29c-.34-.13-.69-.24-1-.35a25,25,0,0,0-6.77-1.21,23.25,23.25,0,0,0-3.72.15c-.65.08-1.28.18-1.91.31h0c-.62.13-1.24.28-1.85.45C1042.5,467.62,1059.47,489.58,1062.9,518.32Z"/><path class="cls-35" d="M794.52,500.34c-.51.14-1,.26-1.53.36C793.51,500.6,794,500.48,794.52,500.34Z"/><path class="cls-35" d="M793,500.7c-.51.11-1,.19-1.57.26C791.93,500.89,792.46,500.81,793,500.7Z"/><path class="cls-35" d="M762.44,456c.08,1.49.2,3,.38,4.51,2.67,22.36,16.5,39.37,31.7,39.88,14.64-4.08,24.07-23.87,21.39-46.23-.06-.53-.14-1.05-.21-1.57C796.74,456.05,778.75,457.19,762.44,456Z"/><path class="cls-35" d="M756.1,455.34h0c0,1.21.1,2.42.2,3.64C756.2,457.76,756.14,456.55,756.1,455.34Z"/><path class="cls-36" d="M762.82,460.46c-.18-1.51-.3-3-.38-4.51q-3.21-.24-6.34-.61c0,1.21.1,2.42.2,3.64.06.74.14,1.49.23,2.23C759.39,485.12,775,502.92,791.4,501c.53-.07,1.06-.15,1.57-.26h0c.52-.1,1-.22,1.53-.36C779.32,499.83,765.49,482.82,762.82,460.46Z"/><path class="cls-35" d="M683.39,544.5c5.29,34.62,22.5,61.86,41.29,68.29,16-11.74,24.32-42.87,19-77.51S721.2,473.4,702.4,467C686.38,478.74,678.1,509.87,683.39,544.5Z"/><path class="cls-36" d="M688.4,608.1a37.81,37.81,0,0,0,14.49,8.6,26,26,0,0,0,4.29.89,23.84,23.84,0,0,0,6.48-.1c.63-.09,1.25-.22,1.86-.37l.6-.15c.43-.11.85-.24,1.27-.38.21-.07.43-.13.64-.21.49-.17,1-.37,1.47-.58l1-.49c.16-.07.32-.16.48-.24.61-.31,1.21-.66,1.8-1l.48-.32c.42-.27.83-.54,1.24-.84l.15-.1h0c-18.79-6.43-36-33.67-41.29-68.29s3-65.76,19-77.51h0l-.18-.05c-.47-.16-1-.29-1.43-.43l-.55-.16c-.68-.17-1.35-.31-2-.43l-.53-.09-1.13-.15q-.79-.09-1.59-.12h-.66c-.45,0-.89,0-1.34,0l-.61,0c-.63.05-1.26.11-1.89.2a24,24,0,0,0-6.2,1.85,26.83,26.83,0,0,0-3.84,2.13,38,38,0,0,0-11.26,12.54,70.67,70.67,0,0,0-7.41,19.05c-.5,2.07-.94,4.21-1.32,6.4s-.69,4.44-.94,6.74a135.27,135.27,0,0,0,10,65.76q1.4,3.19,2.91,6.16c1,2,2.07,3.88,3.17,5.71A70.78,70.78,0,0,0,688.4,608.1Z"/><path class="cls-49" d="M959.08,180.44c-43.59-2.13-98.33,12.17-151.09,42.63-44.41,25.64-79.59,58.21-101.52,91,1.7-2,3.44-3.84,5.2-5.64A324.46,324.46,0,0,1,959.08,180.44Z"/><path class="cls-50" d="M711.67,308.45c24.13-24.71,53.53-34.71,67.9-22.25,15.43,13.37,7.71,47.56-17.25,76.36s-57.71,41.31-73.14,27.94c-4.1-3.55-6.55-8.58-7.49-14.57-1.62,15.5.89,29.93,8.09,42.4,10.37,18,29.12,29.55,53.11,34.81,1.45-22.93,16.27-41.39,35.63-42.77,20.46-1.46,38.62,16.71,42,41.22,31.15-6.39,64.69-19.07,97.47-38,95.65-55.23,148.58-142.65,118.2-195.27-13.62-23.59-41.68-36.17-77.11-37.89A324.46,324.46,0,0,0,711.67,308.45Zm163.13-89c30.49-17.61,59.3-24.79,64.35-16s-15.58,30.1-46.08,47.7-59.3,24.79-64.35,16.05S844.3,237.08,874.8,219.48ZM823.54,344.94c10.12,3.14,15.39,15.12,11.77,26.75s-14.74,18.51-24.86,15.37-15.38-15.12-11.76-26.75S813.43,341.79,823.54,344.94Zm-34.06-69.88a12.8,12.8,0,1,1-4.64,17.46A12.77,12.77,0,0,1,789.48,275.06Z"/><path class="cls-49" d="M711.67,308.45c24.13-24.71,53.53-34.71,67.9-22.25,15.43,13.37,7.71,47.56-17.25,76.36s-57.71,41.31-73.14,27.94c-4.1-3.55-6.55-8.58-7.49-14.57-1.62,15.5.89,29.93,8.09,42.4,10.37,18,29.12,29.55,53.11,34.81,1.45-22.93,16.27-41.39,35.63-42.77,20.46-1.46,38.62,16.71,42,41.22,31.15-6.39,64.69-19.07,97.47-38,95.65-55.23,148.58-142.65,118.2-195.27-13.62-23.59-41.68-36.17-77.11-37.89A324.46,324.46,0,0,0,711.67,308.45Zm163.13-89c30.49-17.61,59.3-24.79,64.35-16s-15.58,30.1-46.08,47.7-59.3,24.79-64.35,16.05S844.3,237.08,874.8,219.48ZM823.54,344.94c10.12,3.14,15.39,15.12,11.77,26.75s-14.74,18.51-24.86,15.37-15.38-15.12-11.76-26.75S813.43,341.79,823.54,344.94Zm-34.06-69.88a12.8,12.8,0,1,1-4.64,17.46A12.77,12.77,0,0,1,789.48,275.06Z"/><path class="cls-51" d="M778.52,410.37c-19.36,1.38-34.18,19.84-35.63,42.77q6.38,1.39,13.21,2.2c0-.25,0-.51,0-.76,0-.73,0-1.45,0-2.16,0-1.44.1-2.85.23-4.24s.3-2.76.52-4.1a55.11,55.11,0,0,1,1.3-5.83c.35-1.25.75-2.47,1.19-3.65s.91-2.32,1.43-3.42c.26-.55.52-1.09.8-1.62.56-1.06,1.15-2.08,1.78-3.05.31-.48.63-.95,1-1.42a32.34,32.34,0,0,1,3.21-3.8A22.82,22.82,0,0,1,781,414.37c.53-.07,1.06-.11,1.59-.13h0c15.44-.65,29.82,16,33.05,38.3,1.6-.3,3.21-.62,4.82-1C817.14,427.08,799,408.91,778.52,410.37Z"/><path class="cls-52" d="M778.52,410.37c-19.36,1.38-34.18,19.84-35.63,42.77q6.38,1.39,13.21,2.2c0-.25,0-.51,0-.76,0-.73,0-1.45,0-2.16,0-1.44.1-2.85.23-4.24s.3-2.76.52-4.1a55.11,55.11,0,0,1,1.3-5.83c.35-1.25.75-2.47,1.19-3.65s.91-2.32,1.43-3.42c.26-.55.52-1.09.8-1.62.56-1.06,1.15-2.08,1.78-3.05.31-.48.63-.95,1-1.42a32.34,32.34,0,0,1,3.21-3.8A22.82,22.82,0,0,1,781,414.37c.53-.07,1.06-.11,1.59-.13h0c15.44-.65,29.82,16,33.05,38.3,1.6-.3,3.21-.62,4.82-1C817.14,427.08,799,408.91,778.52,410.37Z"/><path class="cls-49" d="M778.52,410.37c-19.36,1.38-34.18,19.84-35.63,42.77q6.38,1.39,13.21,2.2c0-.25,0-.51,0-.76,0-.73,0-1.45,0-2.16,0-1.44.1-2.85.23-4.24s.3-2.76.52-4.1a55.11,55.11,0,0,1,1.3-5.83c.35-1.25.75-2.47,1.19-3.65s.91-2.32,1.43-3.42c.26-.55.52-1.09.8-1.62.56-1.06,1.15-2.08,1.78-3.05.31-.48.63-.95,1-1.42a32.34,32.34,0,0,1,3.21-3.8A22.82,22.82,0,0,1,781,414.37c.53-.07,1.06-.11,1.59-.13h0c15.44-.65,29.82,16,33.05,38.3,1.6-.3,3.21-.62,4.82-1C817.14,427.08,799,408.91,778.52,410.37Z"/><path class="cls-53" d="M798.69,360.31c-3.62,11.63,1.65,23.61,11.76,26.75s21.25-3.74,24.86-15.37-1.65-23.61-11.77-26.75S802.3,348.68,798.69,360.31Zm23.44-9.73a12.7,12.7,0,0,1,1.5.39h0c7.08,2.26,11.39,10.39,9.75,18.95s-8.64,14.52-16,14h0a13.35,13.35,0,0,1-1.53-.2c-8-1.52-13-10.18-11.25-19.33S814.17,349.06,822.13,350.58Z"/><path class="cls-54" d="M798.69,360.31c-3.62,11.63,1.65,23.61,11.76,26.75s21.25-3.74,24.86-15.37-1.65-23.61-11.77-26.75S802.3,348.68,798.69,360.31Zm23.44-9.73a12.7,12.7,0,0,1,1.5.39h0c7.08,2.26,11.39,10.39,9.75,18.95s-8.64,14.52-16,14h0a13.35,13.35,0,0,1-1.53-.2c-8-1.52-13-10.18-11.25-19.33S814.17,349.06,822.13,350.58Z"/><path class="cls-49" d="M798.69,360.31c-3.62,11.63,1.65,23.61,11.76,26.75s21.25-3.74,24.86-15.37-1.65-23.61-11.77-26.75S802.3,348.68,798.69,360.31Zm23.44-9.73a12.7,12.7,0,0,1,1.5.39h0c7.08,2.26,11.39,10.39,9.75,18.95s-8.64,14.52-16,14h0a13.35,13.35,0,0,1-1.53-.2c-8-1.52-13-10.18-11.25-19.33S814.17,349.06,822.13,350.58Z"/><path class="cls-55" d="M711.67,308.45c-1.76,1.8-3.5,3.68-5.2,5.64q-4.32,6.45-7.94,12.91Q704.79,317.47,711.67,308.45Z"/><path class="cls-49" d="M711.67,308.45c-1.76,1.8-3.5,3.68-5.2,5.64q-4.32,6.45-7.94,12.91Q704.79,317.47,711.67,308.45Z"/><path class="cls-56" d="M689.18,390.5c15.43,13.37,48.18.87,73.14-27.94s32.68-63,17.25-76.36c-14.37-12.46-43.77-2.46-67.9,22.25q-6.88,9-13.14,18.55c-9.41,16.78-15.21,33.39-16.84,48.93C682.63,381.92,685.08,387,689.18,390.5Zm10.69-26.25a55.73,55.73,0,0,1,2.82-14.77c.48-1.5,1-3,1.63-4.58s1.27-3.12,2-4.69a115.42,115.42,0,0,1,30.82-39.74q2-1.64,4-3.09t4-2.73a55.74,55.74,0,0,1,13.6-6.4,26.31,26.31,0,0,1,11.83-1,16.8,16.8,0,0,1,2.89.77,14.3,14.3,0,0,1,3.8,2.11c.33.26.65.54,1,.83l.29.28c.22.21.42.43.62.65s.2.22.29.34.45.55.66.84.29.43.43.64l.19.32a13.31,13.31,0,0,1,.68,1.23l.17.36c.14.3.29.61.42.93a.61.61,0,0,0,.05.12h0c5.06,12.7-1.79,35.63-18,56.55s-36.73,33.27-50.3,31.53h0l-.13,0c-.34-.05-.67-.11-1-.18l-.38-.07c-.47-.1-.92-.21-1.37-.35l-.35-.11-.73-.26c-.33-.13-.66-.27-1-.42-.14-.06-.27-.14-.4-.21s-.52-.27-.78-.43l-.35-.21c-.36-.23-.71-.47-1-.73a14,14,0,0,1-3-3.16,16.78,16.78,0,0,1-1.46-2.6A26.23,26.23,0,0,1,699.87,364.25Z"/><path class="cls-57" d="M689.18,390.5c15.43,13.37,48.18.87,73.14-27.94s32.68-63,17.25-76.36c-14.37-12.46-43.77-2.46-67.9,22.25q-6.88,9-13.14,18.55c-9.41,16.78-15.21,33.39-16.84,48.93C682.63,381.92,685.08,387,689.18,390.5Zm10.69-26.25a55.73,55.73,0,0,1,2.82-14.77c.48-1.5,1-3,1.63-4.58s1.27-3.12,2-4.69a115.42,115.42,0,0,1,30.82-39.74q2-1.64,4-3.09t4-2.73a55.74,55.74,0,0,1,13.6-6.4,26.31,26.31,0,0,1,11.83-1,16.8,16.8,0,0,1,2.89.77,14.3,14.3,0,0,1,3.8,2.11c.33.26.65.54,1,.83l.29.28c.22.21.42.43.62.65s.2.22.29.34.45.55.66.84.29.43.43.64l.19.32a13.31,13.31,0,0,1,.68,1.23l.17.36c.14.3.29.61.42.93a.61.61,0,0,0,.05.12h0c5.06,12.7-1.79,35.63-18,56.55s-36.73,33.27-50.3,31.53h0l-.13,0c-.34-.05-.67-.11-1-.18l-.38-.07c-.47-.1-.92-.21-1.37-.35l-.35-.11-.73-.26c-.33-.13-.66-.27-1-.42-.14-.06-.27-.14-.4-.21s-.52-.27-.78-.43l-.35-.21c-.36-.23-.71-.47-1-.73a14,14,0,0,1-3-3.16,16.78,16.78,0,0,1-1.46-2.6A26.23,26.23,0,0,1,699.87,364.25Z"/><path class="cls-49" d="M689.18,390.5c15.43,13.37,48.18.87,73.14-27.94s32.68-63,17.25-76.36c-14.37-12.46-43.77-2.46-67.9,22.25q-6.88,9-13.14,18.55c-9.41,16.78-15.21,33.39-16.84,48.93C682.63,381.92,685.08,387,689.18,390.5Zm10.69-26.25a55.73,55.73,0,0,1,2.82-14.77c.48-1.5,1-3,1.63-4.58s1.27-3.12,2-4.69a115.42,115.42,0,0,1,30.82-39.74q2-1.64,4-3.09t4-2.73a55.74,55.74,0,0,1,13.6-6.4,26.31,26.31,0,0,1,11.83-1,16.8,16.8,0,0,1,2.89.77,14.3,14.3,0,0,1,3.8,2.11c.33.26.65.54,1,.83l.29.28c.22.21.42.43.62.65s.2.22.29.34.45.55.66.84.29.43.43.64l.19.32a13.31,13.31,0,0,1,.68,1.23l.17.36c.14.3.29.61.42.93a.61.61,0,0,0,.05.12h0c5.06,12.7-1.79,35.63-18,56.55s-36.73,33.27-50.3,31.53h0l-.13,0c-.34-.05-.67-.11-1-.18l-.38-.07c-.47-.1-.92-.21-1.37-.35l-.35-.11-.73-.26c-.33-.13-.66-.27-1-.42-.14-.06-.27-.14-.4-.21s-.52-.27-.78-.43l-.35-.21c-.36-.23-.71-.47-1-.73a14,14,0,0,1-3-3.16,16.78,16.78,0,0,1-1.46-2.6A26.23,26.23,0,0,1,699.87,364.25Z"/><path class="cls-35" d="M764.3,425.09a32.34,32.34,0,0,1,3.21-3.8A32.34,32.34,0,0,0,764.3,425.09Z"/><path class="cls-49" d="M764.3,425.09a32.34,32.34,0,0,1,3.21-3.8A32.34,32.34,0,0,0,764.3,425.09Z"/><path class="cls-35" d="M781,414.37c.53-.07,1.06-.11,1.59-.13C782.1,414.26,781.57,414.3,781,414.37Z"/><path class="cls-49" d="M781,414.37c.53-.07,1.06-.11,1.59-.13C782.1,414.26,781.57,414.3,781,414.37Z"/><path class="cls-35" d="M756.08,454.58c0,.25,0,.51,0,.76h0C756.1,455.09,756.08,454.83,756.08,454.58Z"/><path class="cls-49" d="M756.08,454.58c0,.25,0,.51,0,.76h0C756.1,455.09,756.08,454.83,756.08,454.58Z"/><path class="cls-35" d="M759.33,434.6c.43-1.17.91-2.32,1.43-3.42C760.24,432.28,759.76,433.43,759.33,434.6Z"/><path class="cls-49" d="M759.33,434.6c.43-1.17.91-2.32,1.43-3.42C760.24,432.28,759.76,433.43,759.33,434.6Z"/><path class="cls-35" d="M762.44,456c16.31,1.24,34.3.1,53.26-3.41-3.23-22.34-17.61-39-33.05-38.3.52,0,1,0,1.57,0C770.56,418,761.45,435.49,762.44,456Z"/><path class="cls-49" d="M762.44,456c16.31,1.24,34.3.1,53.26-3.41-3.23-22.34-17.61-39-33.05-38.3.52,0,1,0,1.57,0C770.56,418,761.45,435.49,762.44,456Z"/><path class="cls-35" d="M761.56,429.56c.56-1.06,1.15-2.08,1.78-3.05C762.71,427.48,762.12,428.5,761.56,429.56Z"/><path class="cls-49" d="M761.56,429.56c.56-1.06,1.15-2.08,1.78-3.05C762.71,427.48,762.12,428.5,761.56,429.56Z"/><path class="cls-35" d="M756.09,452.42c0-1.44.1-2.85.23-4.24C756.19,449.57,756.12,451,756.09,452.42Z"/><path class="cls-49" d="M756.09,452.42c0-1.44.1-2.85.23-4.24C756.19,449.57,756.12,451,756.09,452.42Z"/><path class="cls-35" d="M756.84,444.08a55.11,55.11,0,0,1,1.3-5.83A55.11,55.11,0,0,0,756.84,444.08Z"/><path class="cls-49" d="M756.84,444.08a55.11,55.11,0,0,1,1.3-5.83A55.11,55.11,0,0,0,756.84,444.08Z"/><path class="cls-36" d="M762.44,456c-1-20.46,8.12-37.91,21.78-41.71-.53,0-1.05,0-1.57,0h0c-.53,0-1.06.06-1.59.13a22.82,22.82,0,0,0-13.53,6.92,32.34,32.34,0,0,0-3.21,3.8c-.33.47-.65.94-1,1.42-.63,1-1.22,2-1.78,3.05-.28.53-.54,1.07-.8,1.62-.52,1.1-1,2.25-1.43,3.42s-.84,2.4-1.19,3.65a55.11,55.11,0,0,0-1.3,5.83c-.22,1.34-.39,2.71-.52,4.1s-.2,2.8-.23,4.24c0,.71,0,1.43,0,2.16,0,.25,0,.51,0,.76Q759.24,455.72,762.44,456Z"/><path class="cls-49" d="M762.44,456c-1-20.46,8.12-37.91,21.78-41.71-.53,0-1.05,0-1.57,0h0c-.53,0-1.06.06-1.59.13a22.82,22.82,0,0,0-13.53,6.92,32.34,32.34,0,0,0-3.21,3.8c-.33.47-.65.94-1,1.42-.63,1-1.22,2-1.78,3.05-.28.53-.54,1.07-.8,1.62-.52,1.1-1,2.25-1.43,3.42s-.84,2.4-1.19,3.65a55.11,55.11,0,0,0-1.3,5.83c-.22,1.34-.39,2.71-.52,4.1s-.2,2.8-.23,4.24c0,.71,0,1.43,0,2.16,0,.25,0,.51,0,.76Q759.24,455.72,762.44,456Z"/><path class="cls-35" d="M731.81,328.16c-16.23,20.92-23.09,43.84-18,56.55,13.57,1.74,34.07-10.6,50.3-31.53s23.08-43.85,18-56.55C768.52,294.9,748,307.24,731.81,328.16Z"/><path class="cls-49" d="M731.81,328.16c-16.23,20.92-23.09,43.84-18,56.55,13.57,1.74,34.07-10.6,50.3-31.53s23.08-43.85,18-56.55C768.52,294.9,748,307.24,731.81,328.16Z"/><path class="cls-36" d="M703.27,378.57a14,14,0,0,0,3,3.16c.33.26.68.5,1,.73l.35.21c.26.16.52.3.78.43s.26.15.4.21c.32.15.65.29,1,.42l.73.26.35.11c.45.14.9.25,1.37.35l.38.07c.34.07.67.13,1,.18l.13,0h0c-5-12.71,1.81-35.63,18-56.55s36.71-33.26,50.28-31.53h0a.61.61,0,0,1-.05-.12c-.13-.32-.28-.63-.42-.93l-.17-.36a13.31,13.31,0,0,0-.68-1.23l-.19-.32c-.14-.21-.28-.43-.43-.64s-.43-.57-.66-.84-.19-.23-.29-.34-.4-.44-.62-.65l-.29-.28c-.31-.29-.63-.57-1-.83a14.3,14.3,0,0,0-3.8-2.11,16.8,16.8,0,0,0-2.89-.77,26.31,26.31,0,0,0-11.83,1,55.74,55.74,0,0,0-13.6,6.4q-2,1.28-4,2.73t-4,3.09a115.42,115.42,0,0,0-30.82,39.74c-.72,1.57-1.38,3.14-2,4.69s-1.15,3.08-1.63,4.58a55.73,55.73,0,0,0-2.82,14.77A26.23,26.23,0,0,0,701.81,376,16.78,16.78,0,0,0,703.27,378.57Z"/><path class="cls-49" d="M703.27,378.57a14,14,0,0,0,3,3.16c.33.26.68.5,1,.73l.35.21c.26.16.52.3.78.43s.26.15.4.21c.32.15.65.29,1,.42l.73.26.35.11c.45.14.9.25,1.37.35l.38.07c.34.07.67.13,1,.18l.13,0h0c-5-12.71,1.81-35.63,18-56.55s36.71-33.26,50.28-31.53h0a.61.61,0,0,1-.05-.12c-.13-.32-.28-.63-.42-.93l-.17-.36a13.31,13.31,0,0,0-.68-1.23l-.19-.32c-.14-.21-.28-.43-.43-.64s-.43-.57-.66-.84-.19-.23-.29-.34-.4-.44-.62-.65l-.29-.28c-.31-.29-.63-.57-1-.83a14.3,14.3,0,0,0-3.8-2.11,16.8,16.8,0,0,0-2.89-.77,26.31,26.31,0,0,0-11.83,1,55.74,55.74,0,0,0-13.6,6.4q-2,1.28-4,2.73t-4,3.09a115.42,115.42,0,0,0-30.82,39.74c-.72,1.57-1.38,3.14-2,4.69s-1.15,3.08-1.63,4.58a55.73,55.73,0,0,0-2.82,14.77A26.23,26.23,0,0,0,701.81,376,16.78,16.78,0,0,0,703.27,378.57Z"/><path class="cls-35" d="M822.13,350.58a12.7,12.7,0,0,1,1.5.39A12.7,12.7,0,0,0,822.13,350.58Z"/><path class="cls-49" d="M822.13,350.58a12.7,12.7,0,0,1,1.5.39A12.7,12.7,0,0,0,822.13,350.58Z"/><path class="cls-35" d="M817.32,383.93a13.35,13.35,0,0,1-1.53-.2A13.35,13.35,0,0,0,817.32,383.93Z"/><path class="cls-49" d="M817.32,383.93a13.35,13.35,0,0,1-1.53-.2A13.35,13.35,0,0,0,817.32,383.93Z"/><path class="cls-35" d="M807.59,365c-1.63,8.56,2.66,16.68,9.74,18.95,7.41.51,14.41-5.45,16-14s-2.67-16.69-9.75-18.95C816.22,350.46,809.23,356.43,807.59,365Z"/><path class="cls-49" d="M807.59,365c-1.63,8.56,2.66,16.68,9.74,18.95,7.41.51,14.41-5.45,16-14s-2.67-16.69-9.75-18.95C816.22,350.46,809.23,356.43,807.59,365Z"/><path class="cls-36" d="M815.79,383.73a13.35,13.35,0,0,0,1.53.2h0c-7.08-2.27-11.37-10.39-9.74-18.95s8.63-14.52,16-14h0a12.7,12.7,0,0,0-1.5-.39c-8-1.52-15.84,4.67-17.59,13.82S807.82,382.21,815.79,383.73Z"/><path class="cls-49" d="M815.79,383.73a13.35,13.35,0,0,0,1.53.2h0c-7.08-2.27-11.37-10.39-9.74-18.95s8.63-14.52,16-14h0a12.7,12.7,0,0,0-1.5-.39c-8-1.52-15.84,4.67-17.59,13.82S807.82,382.21,815.79,383.73Z"/><ellipse class="cls-58" cx="883.93" cy="235.31" rx="63.76" ry="18.28" transform="translate(0.77 473.49) rotate(-30)"/><path class="cls-58" d="M802.28,297.22a12.8,12.8,0,1,0-17.44-4.7A12.77,12.77,0,0,0,802.28,297.22Z"/><circle class="cls-59" cx="412.58" cy="214.43" r="50"/><circle class="cls-60" cx="472.58" cy="217.36" r="17.5"/><circle class="cls-61" cx="428.39" cy="191.45" r="12"/><circle class="cls-62" cx="462.25" cy="225.44" r="4.69"/><circle class="cls-63" cx="413.34" cy="177.23" r="4"/><circle class="cls-64" cx="1481.71" cy="176.15" r="76.73"/><circle class="cls-65" cx="1476.9" cy="173.23" r="94.81"/><circle class="cls-66" cx="1481.71" cy="176.15" r="60"/><circle class="cls-67" cx="1478.56" cy="134.9" r="5.66"/><circle class="cls-68" cx="1503.01" cy="152.56" r="12"/><circle class="cls-69" cx="472.58" cy="218.13" r="26.68"/><path class="cls-70" d="M1707.24,447.67,1699.16,435,1485.87,565.55h0a12.5,12.5,0,1,0,13.47,21.05h0Z"/><path class="cls-71" d="M1637.8,820.76l-4.43-5.3-82.24,65.7h0a5.76,5.76,0,0,0,7.36,8.82h0Z"/><path class="cls-72" d="M1230.25,816.73l-5.81-5.32-118,125.21h0c-3.23,3.54-3.68,8.39-1,10.83s7.47,1.56,10.7-2h0Z"/><path class="cls-73" d="M210.32,701.86,408.06,510.68l-27.28-29.26L176.23,665.29l0,0c-.28.24-.56.48-.84.74a25,25,0,1,0,34.1,36.57l.8-.78Z"/><path class="cls-74" d="M212.49,685.21,371.68,532.89l-15.6-16.74L193,664.3h0c-.22.19-.45.39-.67.6-8.09,7.54-10.28,18.33-4.9,24.11s16.31,4.34,24.4-3.2l.64-.62Z"/><path class="cls-75" d="M382.17,990.48,492.73,856.73l-21.81-18.8-116,129,0,0c-.17.17-.32.34-.48.52-5.69,6.59-4.19,17.2,3.33,23.69s18.24,6.41,23.93-.19c.16-.18.3-.36.45-.55Z"/><path class="cls-76" d="M378.94,980.63l90.89-108.35-11.6-10L364.44,968.14h0l-.38.43c-4.64,5.38-5.15,12.54-1.15,16s11,1.89,15.64-3.49l.37-.44Z"/><path class="cls-77" d="M472.07,764.57l93.71-77.1-11.09-14-96.48,73.6h0c-.14.09-.27.19-.4.29a11.17,11.17,0,0,0,13.87,17.5l.38-.31Z"/><path class="cls-78" d="M471.84,759.91l77.19-63-7.13-9-79,60.74h0l-.32.25c-3.92,3.1-5.1,8.14-2.64,11.25s7.64,3.11,11.56,0l.31-.26Z"/><circle class="cls-79" cx="360.23" cy="982.56" r="48.16"/><path class="cls-80" d="M503.22,1036.2l45.49-36.71-5.85-7.72-46.94,34.79h0l-.19.14c-2.32,1.8-2.57,5.41-.55,8.07s5.54,3.37,7.86,1.58l.18-.15Z"/><path class="cls-81" d="M502.85,1032.72l37.28-29.65L537,999,499,1027.59h0l-.15.11c-1.89,1.46-2.56,3.8-1.49,5.22s3.48,1.37,5.37-.09l.15-.12Z"/><ellipse class="cls-82" cx="496.58" cy="1032.08" rx="16.29" ry="16.12" transform="translate(-615.25 1307.07) rotate(-78.2)"/></g></g></svg>